<?xml version="1.0" encoding="utf-8"?>
<!-- Generator: Adobe Illustrator 25.4.6, SVG Export Plug-In . SVG Version: 6.00 Build 0)  -->
<svg version="1.1" id="Layer_1" xmlns="http://www.w3.org/2000/svg" xmlns:xlink="http://www.w3.org/1999/xlink" x="0px" y="0px"
	 viewBox="0 0 32 32" style="enable-background:new 0 0 32 32;" xml:space="preserve">
<style type="text/css">
	.st0{fill:#00BABC;}
</style>
<g>
	<path class="st0" d="M12.2,24.8l-2.7-1.1c0,0-0.1,0-0.1-0.1L8.3,21c0,0,0-0.1-0.1-0.1S8,20.9,8,21l-1,2.7c0,0,0,0.1-0.1,0.1
		l-2.7,1.1c0,0-0.1,0-0.1,0.1s0,0.2,0.1,0.2l2.7,1.1c0,0,0.1,0,0.1,0.1L8.1,29c0,0,0,0.1,0.1,0.1s0.2,0,0.2-0.1l1.1-2.8
		c0,0,0-0.1,0.1-0.1l2.7-1.1c0,0,0.1,0,0.1-0.1C12.3,24.9,12.3,24.9,12.2,24.8z"/>
	<path class="st0" d="M4.4,11.1l1.1,4c0,0.1,0.2,0.2,0.3,0.2c0.1,0,0.1-0.1,0.2-0.2l1.1-4V11l4-1.1c0.1,0,0.2-0.2,0.2-0.3
		s-0.1-0.1-0.2-0.2l-4-1.1L7,8.2l-1.1-4C5.9,4.1,5.8,4,5.6,4c0,0-0.1,0.1-0.1,0.2l-1.1,4L4.2,8.3l-4,1.1C0.1,9.5,0,9.6,0.1,9.7
		c0,0.1,0.1,0.2,0.2,0.2l4,1.1L4.4,11.1z"/>
	<path class="st0" d="M4.3,18.5c0,0.9,0.8,1.7,1.7,1.7s1.7-0.8,1.7-1.7c0-0.9-0.8-1.7-1.7-1.7S4.3,17.6,4.3,18.5z"/>
	<path class="st0" d="M16.8,8.9c0-0.9-0.7-1.7-1.6-1.8s-1.7,0.7-1.8,1.6c0,0.9,0.7,1.7,1.6,1.8S16.8,9.8,16.8,8.9z"/>
	<path class="st0" d="M9.5,5.3c1.2-0.2,2.5-0.4,3.8-0.4c1.8-0.1,3.5-0.1,5.2,0L21,9.5l0.3,0.1c0.7,0.1,1.5,0.3,2.2,0.4
		c0.1,0.9,0.8,1.6,1.8,1.7c1,0,1.9-0.7,2-1.8c0-1-0.7-1.9-1.8-2c-0.7,0-1.2,0.3-1.6,0.8c-0.7-0.2-1.3-0.3-2-0.4L20.2,5
		c2.3,0.3,4.5,0.7,6.7,1.4c0.1,0.9,0.8,1.7,1.8,1.8c1,0,1.9-0.7,2-1.8c0-1-0.7-1.9-1.8-2c-0.6,0-1.2,0.3-1.6,0.7
		c-4.6-1.4-9.3-1.9-14-1.6c-1.4,0.1-2.7,0.2-4,0.5C9,4,8.7,4.4,8.8,4.7C8.8,5.1,9.2,5.3,9.5,5.3z"/>
	<path class="st0" d="M8.5,14.5c0,0.3,0.3,0.5,0.6,0.5c0,0,0.1,0,0.2,0c2.5-0.6,5.1-0.8,7.7-0.8c0.2,0.6,0.8,1.1,1.5,1.1
		c0.9,0,1.7-0.7,1.8-1.6c0-0.9-0.7-1.7-1.6-1.8c-0.7,0-1.3,0.4-1.6,1c-2.7-0.1-5.4,0.2-8,0.8C8.6,13.8,8.4,14.1,8.5,14.5z"/>
	<path class="st0" d="M29.4,19.6c-0.6,0-1,0.3-1.4,0.7c-2.3-0.9-4.6-1.5-7-1.8l3.5-2.6c1.1,0.2,2.1,0.6,3.1,0.9l0,0
		c0,1,0.9,1.8,1.9,1.8s1.8-0.9,1.8-1.9s-0.9-1.8-1.9-1.8c-0.5,0-1,0.3-1.4,0.6c-1.2-0.4-2.4-0.8-3.6-1l-0.3-0.1L19,18.3
		c-0.9,0-1.9,0-2.8,0c-1.2,0.1-2.3,0.2-3.5,0.5c-0.4,0.1-0.6,0.4-0.5,0.8s0.4,0.6,0.8,0.5c1.1-0.2,2.2-0.4,3.3-0.4
		c0.9-0.1,1.9-0.1,2.8,0h0.1h0.1c2.8,0.2,5.6,0.8,8.3,1.9c0,1,0.9,1.8,1.9,1.8s1.8-0.9,1.8-1.9C31.3,20.4,30.5,19.6,29.4,19.6z"/>
	<path class="st0" d="M25.2,24.2c-0.5,0-1,0.3-1.3,0.7c-2.3-0.7-4.8-1-7.2-0.8c-0.9,0.1-1.9,0.2-2.8,0.4c-0.4,0.1-0.6,0.4-0.5,0.8
		s0.4,0.6,0.8,0.5c0.9-0.2,1.7-0.3,2.6-0.4c2.3-0.2,4.6,0.1,6.8,0.7c0.1,0.9,0.8,1.6,1.8,1.6s1.7-0.8,1.7-1.8
		C26.9,24.9,26.1,24.2,25.2,24.2z"/>
</g>
</svg>
