<?xml version="1.0" encoding="UTF-8" standalone="no"?>
<!-- Created with Inkscape (http://www.inkscape.org/) -->

<svg
   width="24"
   height="24"
   viewBox="0 0 6.3499999 6.35"
   version="1.1"
   id="svg1"
   xml:space="preserve"
   inkscape:version="1.4 (e7c3feb1, 2024-10-09)"
   sodipodi:docname="visibility_off.svg"
   xmlns:inkscape="http://www.inkscape.org/namespaces/inkscape"
   xmlns:sodipodi="http://sodipodi.sourceforge.net/DTD/sodipodi-0.dtd"
   xmlns="http://www.w3.org/2000/svg"
   xmlns:svg="http://www.w3.org/2000/svg"><sodipodi:namedview
     id="namedview1"
     pagecolor="#ffffff"
     bordercolor="#000000"
     borderopacity="0.25"
     inkscape:showpageshadow="2"
     inkscape:pageopacity="0.0"
     inkscape:pagecheckerboard="0"
     inkscape:deskcolor="#d1d1d1"
     inkscape:document-units="mm"
     showguides="false"
     showgrid="true"
     inkscape:zoom="13.166667"
     inkscape:cx="9"
     inkscape:cy="8.4683544"
     inkscape:window-width="1344"
     inkscape:window-height="1112"
     inkscape:window-x="0"
     inkscape:window-y="30"
     inkscape:window-maximized="0"
     inkscape:current-layer="layer1"><inkscape:grid
       id="grid2"
       units="mm"
       originx="0"
       originy="0"
       spacingx="0.99999998"
       spacingy="1"
       empcolor="#0099e5"
       empopacity="0.30196078"
       color="#0099e5"
       opacity="0.14901961"
       empspacing="5"
       dotted="false"
       gridanglex="30"
       gridanglez="30"
       visible="true" /></sodipodi:namedview><defs
     id="defs1" /><g
     inkscape:label="Calque 1"
     inkscape:groupmode="layer"
     id="layer1"><path
       d="M 5.4091674,5.5599293 C 5.7016965,5.3662625 5.2427245,5.1297421 5.127452,4.9616939 3.7648946,3.5972793 2.4071759,2.2278337 1.0373611,0.87078247 0.7535274,0.78181959 0.78329318,1.1589528 0.98719438,1.2447715 2.4098294,2.6749694 3.8308591,4.1070404 5.2670281,5.5236019 c 0.033445,0.043479 0.09253,0.046934 0.1425854,0.036343 z M 3.8568228,4.0376472 c 0.022296,-0.021185 0.015606,0.021851 0,0 z M 2.1489942,2.3976521 c 0.00714,-0.021517 0.014493,0.021068 0,0 z m 0.032331,-0.2772673 c 0.00714,-0.021517 0.014493,0.021068 0,0 z M 1.9925849,1.9316121 c 0.00714,-0.021517 0.014494,0.021071 0,0 z M 1.7006131,1.6517473 c 0.013378,-0.02029 0.016722,0.011259 0,0 z m -0.070233,-0.098327 c 0.020067,-0.010181 0.00973,0.027537 0,0 z M 3.3854093,5.0049468 C 3.7132786,4.9839881 4.0369113,4.9069539 4.343264,4.7896078 4.2080361,4.7182591 4.0771563,4.3723522 3.9276586,4.4777253 3.3918754,4.8398529 2.6107868,4.7280473 2.1933083,4.236177 1.7522848,3.7553655 1.6917502,2.9972422 1.9949818,2.4293054 1.9169441,2.3505989 1.8381262,2.2718702 1.7596428,2.1931637 1.3605366,2.8610754 1.4098115,3.7637846 1.8871784,4.3798608 1.3502803,4.128669 0.87469757,3.725293 0.52307155,3.2435932 0.51452468,3.0273845 0.80846592,2.8310198 0.95094016,2.6531725 1.1696679,2.4436754 1.4145944,2.2612459 1.6789187,2.1131866 1.5571802,2.003265 1.4410158,1.7895982 1.2848291,1.9856398 0.83968092,2.288938 0.42218017,2.666238 0.1647234,3.1446761 0.15714253,3.3871389 0.38623832,3.5561347 0.51912507,3.7378618 1.2329455,4.5388387 2.2989821,5.0680446 3.3853091,5.0049488 Z M 0.83692715,3.9433133 c 0.007134,-0.021517 0.014493,0.021069 0,0 z M 0.95978059,2.5440818 c 0.0111484,0.00251 -0.008474,0.025865 0,0 z M 4.9616446,4.4969793 C 5.4637602,4.1912732 5.9132563,3.7856341 6.2223852,3.2829276 6.2747818,2.9837317 5.9537131,2.7689611 5.7921754,2.5498877 5.0192696,1.7404045 3.8719064,1.2471327 2.7461373,1.4141463 2.4798064,1.450824 2.2196068,1.5262865 1.9702214,1.6254943 2.0958618,1.7508002 2.2215022,1.8760952 2.3471428,2.001401 2.8490352,1.5714366 3.6641147,1.6021166 4.1287168,2.0729727 4.6534632,2.5615321 4.7372979,3.4230081 4.3676231,4.0249328 4.4832299,4.1667045 4.6390821,4.3386545 4.7032959,4.0737618 5.0370734,3.422405 4.9622688,2.5839701 4.511212,2.0064826 5.0658359,2.2668266 5.555131,2.6840374 5.9074704,3.1886613 5.6027896,3.6648464 5.1441521,4.0302515 4.656607,4.3091507 4.751368,4.3511797 4.8250565,4.5853925 4.9373192,4.5112011 l 0.013377,-0.00776 z m -0.0301,-0.022743 c 0.00715,-0.021517 0.014492,0.021071 0,0 z M 4.7220691,4.2769581 c 0.013378,-0.020288 0.016723,0.01126 0,0 z M 5.907827,3.262281 c 0.013377,-0.020289 0.016723,0.011258 0,0 z M 5.7456206,2.8342342 c 0.00715,-0.021517 0.014494,0.021073 0,0 z M 5.0465159,2.2417063 c 0.013377,-0.020289 0.016722,0.011259 0,0 z M 4.9495267,1.931641 c 0.00715,-0.021517 0.014493,0.02107 0,0 z M 2.2535644,1.7723555 c 0.00714,-0.021517 0.014493,0.02107 0,0 z m 1.6016531,-0.00592 c 0.00714,-0.021517 0.014493,0.021071 0,0 z M 3.5946838,4.1146295 C 3.7340364,4.0585502 3.3331465,3.8340367 3.2758448,3.7189648 3.2212182,3.6165126 2.9400605,3.7298169 2.9483102,3.7499562 3.1120775,3.904471 3.2603489,4.1260307 3.5121869,4.1192861 l 0.044592,-0.00101 0.037903,-0.00368 z M 3.1030474,3.9019773 c 0.00714,-0.021517 0.014493,0.021071 0,0 z M 4.0756178,3.7169821 C 4.1614591,3.4278641 3.936265,3.2100503 3.7455193,3.0344771 3.5988085,2.8541768 3.3723884,2.6970318 3.1314753,2.7882687 3.3021545,2.9612444 3.4645842,3.101623 3.6335909,3.2831938 3.7820855,3.4245866 3.9173131,3.5919884 4.0756178,3.7169821 Z M 3.9437345,3.4765376 c 0.020067,-0.010181 0.00973,0.027536 0,0 z M 3.4334804,3.046584 c 0.00714,-0.021517 0.014493,0.021071 0,0 z M 3.0727242,3.588889 C 3.1384987,3.4900045 2.815089,3.2990131 2.7269066,3.1677542 2.5494268,2.9913335 2.3731737,2.813687 2.1981467,2.6347803 c -0.074693,0.2461747 0.075808,0.475304 0.2590845,0.6271206 0.1671118,0.170902 0.3408011,0.4006556 0.615493,0.326977 z M 2.3716129,3.1704744 c 0.00714,-0.021517 0.014493,0.02107 0,0 z M 3.0652548,2.6855828 C 3.181085,2.6159059 3.4505373,2.6934652 3.2446297,2.545483 3.1018211,2.3931314 2.9331486,2.2182605 2.7030494,2.2517275 2.5265733,2.3167212 2.9428474,2.5333203 3.0162028,2.6765637 l 0.018953,0.016164 0.0301,-0.00722 z"
       style="fill:#000000;stroke-width:0.222965"
       id="path1-9" /></g></svg>
