<?xml version="1.0" encoding="UTF-8" standalone="no"?>
<svg
   height="24"
   viewBox="0 -960 960 960"
   width="24"
   version="1.1"
   id="svg1"
   sodipodi:docname="ActorStateTransitionIcon.svg"
   inkscape:version="1.3.2 (091e20e, 2023-11-25)"
   xmlns:inkscape="http://www.inkscape.org/namespaces/inkscape"
   xmlns:sodipodi="http://sodipodi.sourceforge.net/DTD/sodipodi-0.dtd"
   xmlns="http://www.w3.org/2000/svg"
   xmlns:svg="http://www.w3.org/2000/svg">
  <defs
     id="defs1" />
  <sodipodi:namedview
     id="namedview1"
     pagecolor="#ffffff"
     bordercolor="#666666"
     borderopacity="1.0"
     inkscape:showpageshadow="2"
     inkscape:pageopacity="0.0"
     inkscape:pagecheckerboard="0"
     inkscape:deskcolor="#d1d1d1"
     inkscape:zoom="39.333334"
     inkscape:cx="10.461864"
     inkscape:cy="11.961864"
     inkscape:window-width="1792"
     inkscape:window-height="998"
     inkscape:window-x="0"
     inkscape:window-y="25"
     inkscape:window-maximized="0"
     inkscape:current-layer="svg1"
     showgrid="true">
    <inkscape:grid
       id="grid1"
       units="px"
       originx="0"
       originy="0"
       spacingx="28"
       spacingy="28"
       empcolor="#0099e5"
       empopacity="0.30196078"
       color="#0099e5"
       opacity="0.14901961"
       empspacing="5"
       dotted="false"
       gridanglex="30"
       gridanglez="30"
       visible="true" />
  </sodipodi:namedview>
  <path
     d="m 254,-256 c 26,-7.33333 47.16667,-21.66667 63.5,-43 16.33333,-21.33333 24.5,-45.66667 24.5,-73 v -160 c 0,-55.33333 19.5,-102.5 58.5,-141.5 39,-39 86.16667,-58.5 141.5,-58.5 h 46 l -63,-63 57,-57 160,160 -160,160 -57,-56 63,-64 h -46 c -33.33333,0 -61.66667,11.66667 -85,35 -23.33333,23.33333 -35,51.66667 -35,85 v 160 c 0,48.66667 -15.66667,91.5 -47,128.5 -31.33333,37 -74.05085,59.83333 -122.05085,68.5 0.39178,-57.48491 -0.6482,-27.22758 1.05085,-81 z"
     id="path1"
     sodipodi:nodetypes="cssssscccccccssssscc" />
  <path
     d="m 28,-64 v -252 h 252 v 252 z m 56,-56 H 224 V -260 H 84 Z"
     id="path1-3"
     sodipodi:nodetypes="cccccccccc" />
  <path
     d="m 700,-568 v -252 h 252 v 252 z m 56,-56 H 896 V -764 H 756 Z"
     id="path1-3-8"
     sodipodi:nodetypes="cccccccccc" />
</svg>
