<?xml version="1.0" encoding="UTF-8" standalone="no"?>
<svg
   height="24"
   viewBox="0 -960 960 960"
   width="24"
   version="1.1"
   id="svg1"
   sodipodi:docname="actor_state.svg"
   inkscape:version="1.3.2 (091e20e, 2023-11-25)"
   xmlns:inkscape="http://www.inkscape.org/namespaces/inkscape"
   xmlns:sodipodi="http://sodipodi.sourceforge.net/DTD/sodipodi-0.dtd"
   xmlns="http://www.w3.org/2000/svg"
   xmlns:svg="http://www.w3.org/2000/svg">
  <defs
     id="defs1" />
  <sodipodi:namedview
     id="namedview1"
     pagecolor="#ffffff"
     bordercolor="#666666"
     borderopacity="1.0"
     inkscape:showpageshadow="2"
     inkscape:pageopacity="0.0"
     inkscape:pagecheckerboard="0"
     inkscape:deskcolor="#d1d1d1"
     inkscape:zoom="27.812867"
     inkscape:cx="11.990853"
     inkscape:cy="11.990853"
     inkscape:window-width="1792"
     inkscape:window-height="1092"
     inkscape:window-x="0"
     inkscape:window-y="28"
     inkscape:window-maximized="0"
     inkscape:current-layer="svg1"
     showgrid="true">
    <inkscape:grid
       id="grid1"
       units="px"
       originx="0"
       originy="0"
       spacingx="40"
       spacingy="40"
       empcolor="#0099e5"
       empopacity="0.30196078"
       color="#0099e5"
       opacity="0.14901961"
       empspacing="5"
       dotted="false"
       gridanglex="30"
       gridanglez="30"
       visible="true" />
  </sodipodi:namedview>
  <path
     d="m 360.19613,-231.11085 62.72,-315.84 -40.32,15.68 v 76.16 h -44.8 v -105.28 l 113.12,-48.16 q 7.84,-3.36 16.52,-3.92 8.68,-0.56 16.52,2.24 7.84,2.8 14.84,7.84 7,5.04 11.48,12.88 l 22.4,35.84 q 14.56,23.52 39.48,38.64 24.92,15.12 56.84,15.12 v 44.8 q -39.2,0 -70,-16.24 -30.8,-16.24 -52.64,-41.44 l -14,68.88 47.04,44.8 v 168 h -44.8 v -145.6 l -47.04,-35.84 -40.32,181.44 z m 145.6,-392 q -18.48,0 -31.64,-13.16 -13.16,-13.16 -13.16,-31.64 0,-18.48 13.16,-31.64 13.16,-13.16 31.64,-13.16 18.48,0 31.64,13.16 13.16,13.16 13.16,31.64 0,18.48 -13.16,31.64 -13.16,13.16 -31.64,13.16 z"
     id="path1"
     style="stroke-width:0.56" />
  <path
     d="m 626.74063,-80.194258 v -39.436302 h 202.97278 l -1.43818,-716.97103 -201.5346,1.43818 v -43.75085 h 249.6 v 798.720002 z m -549.120004,0 V -878.91426 H 338.7261 v 40.87449 l -208.72552,1.43817 v 712.65649 l 195.78187,2.87636 1.43818,40.874492 z"
     id="path1-7"
     style="stroke-width:1.248"
     sodipodi:nodetypes="cccccccccccccccccc" />
</svg>
