<?xml version="1.0" encoding="UTF-8" standalone="no"?>
<svg
   height="24"
   viewBox="0 -960 960 960"
   width="24"
   version="1.1"
   id="svg1"
   sodipodi:docname="actor_state_alt.svg"
   inkscape:version="1.3.2 (091e20e, 2023-11-25)"
   xmlns:inkscape="http://www.inkscape.org/namespaces/inkscape"
   xmlns:sodipodi="http://sodipodi.sourceforge.net/DTD/sodipodi-0.dtd"
   xmlns="http://www.w3.org/2000/svg"
   xmlns:svg="http://www.w3.org/2000/svg">
  <defs
     id="defs1" />
  <sodipodi:namedview
     id="namedview1"
     pagecolor="#ffffff"
     bordercolor="#666666"
     borderopacity="1.0"
     inkscape:showpageshadow="2"
     inkscape:pageopacity="0.0"
     inkscape:pagecheckerboard="0"
     inkscape:deskcolor="#d1d1d1"
     showgrid="true"
     inkscape:zoom="27.812867"
     inkscape:cx="15.855971"
     inkscape:cy="11.253784"
     inkscape:window-width="1792"
     inkscape:window-height="999"
     inkscape:window-x="0"
     inkscape:window-y="25"
     inkscape:window-maximized="0"
     inkscape:current-layer="svg1">
    <inkscape:grid
       id="grid2"
       units="px"
       originx="0"
       originy="0"
       spacingx="28"
       spacingy="28"
       empcolor="#0099e5"
       empopacity="0.30196078"
       color="#0099e5"
       opacity="0.14901961"
       empspacing="5"
       dotted="false"
       gridanglex="30"
       gridanglez="30"
       visible="true" />
  </sodipodi:namedview>
  <path
     d="m 192.88,-655.04 v 334.08 h 570.24 v -334.08 z m 86.4,80.51162 403.2,0.12845 v 172.8 l -403.2,-3.04229 z"
     id="path1-6"
     sodipodi:nodetypes="cccccccccc"
     style="stroke-width:1.44" />
  <path
     style="stroke-width:0.432"
     d="m 11.424003,-153.888 c 11.232,-3.16798 20.375985,-9.36 27.432,-18.576 7.055995,-9.21598 10.583995,-19.728 10.583995,-31.536 v -69.12 c 0,-23.90398 8.424002,-44.28 25.272002,-61.128 16.848,-16.848 37.22399,-25.272 61.12802,-25.272 h 19.872 l -27.216,-27.216 24.624,-24.624 69.12,69.12 -69.12,69.12 -24.624,-24.192 27.216,-27.648 h -19.872 c -14.40003,0 -26.64006,5.04002 -36.72,15.12 C 89.03999,-299.75999 84,-287.51998 84,-273.12 V -204 c 0,21.02402 -6.768,39.528 -20.304,55.512 -13.536014,15.984 -31.989957,25.84801 -52.72596,29.592 0.169171,-24.83346 -0.28004,-11.7623 0.453963,-34.992 z"
     id="path6"
     sodipodi:nodetypes="cssssscccccccssssscc" />
  <path
     style="stroke-width:0.432"
     d="m 710.22758,-647.09884 c 11.232,-3.16798 20.37598,-9.35999 27.432,-18.57599 7.05598,-9.216 10.584,-19.728 10.584,-31.536 v -69.12 c 0,-23.90399 8.424,-44.28 25.272,-61.128 16.848,-16.848 37.22398,-25.272 61.128,-25.272 h 19.872 l -27.216,-27.216 24.624,-24.624 69.12,69.12 -69.12,69.12 -24.624,-24.192 27.216,-27.648 h -19.872 c -14.40002,0 -26.64002,5.04001 -36.72,15.12 -10.08002,10.08 -15.12,22.32001 -15.12,36.72 v 69.12 c 0,21.024 -6.76802,39.52799 -20.304,55.51199 -13.53602,15.984 -31.98998,25.84801 -52.72598,29.592 0.16917,-24.8335 -0.28002,-11.7623 0.45398,-34.992 z"
     id="path1"
     sodipodi:nodetypes="cssssscccccccssssscc" />
</svg>
