<?xml version="1.0" encoding="UTF-8" standalone="no"?>
<svg
   height="24"
   viewBox="0 -960 960 960"
   width="24"
   version="1.1"
   id="svg2"
   sodipodi:docname="diagram_time_evol_FILL0_wght400_GRAD0_opsz24.svg"
   inkscape:version="1.3.2 (091e20e, 2023-11-25)"
   xmlns:inkscape="http://www.inkscape.org/namespaces/inkscape"
   xmlns:sodipodi="http://sodipodi.sourceforge.net/DTD/sodipodi-0.dtd"
   xmlns="http://www.w3.org/2000/svg"
   xmlns:svg="http://www.w3.org/2000/svg">
  <defs
     id="defs2" />
  <sodipodi:namedview
     id="namedview2"
     pagecolor="#ffffff"
     bordercolor="#666666"
     borderopacity="1.0"
     inkscape:showpageshadow="2"
     inkscape:pageopacity="0.0"
     inkscape:pagecheckerboard="0"
     inkscape:deskcolor="#d1d1d1"
     showgrid="false"
     inkscape:zoom="32.880465"
     inkscape:cx="12.028419"
     inkscape:cy="12.058832"
     inkscape:window-width="1504"
     inkscape:window-height="960"
     inkscape:window-x="0"
     inkscape:window-y="25"
     inkscape:window-maximized="0"
     inkscape:current-layer="svg2" />
  <path
     d="m 93.118279,-785.59139 134.623651,-151.82796 143.22581,151.82796 -47.39785,48.39785 -55.82796,-47.22581 v 607 h -80 v -607 l -42.06452,45.50538 z"
     id="path1"
     sodipodi:nodetypes="cccccccccc" />
  <path
     d="m 92.473119,-163.44086 134.623651,151.827957 143.22581,-151.827957 -47.39785,-48.39785 -55.82796,47.22581 v -607 h -80 v 607 l -42.06452,-45.50538 z"
     id="path1-1"
     sodipodi:nodetypes="cccccccccc" />
  <path
     d="m 738.49462,-154.4086 -57,-50.83871 42.06452,-48.94624 -534.74194,-1.72043 1.72043,-73.11828 533.02151,-5.16129 -48.94624,-50.66667 55.27957,-56 146.66667,146.66667 z"
     id="path2"
     sodipodi:nodetypes="cccccccccc" />
  <path
     d="m 705.55312,-533.84625 q 26.85557,0 52.36836,-9.12025 25.51279,-9.12026 44.31169,-25.0807 l 52.36837,-44.46125 -56.3967,-47.88134 -52.36837,44.46124 q -8.05667,6.84019 -18.7989,9.69027 -10.74223,2.85008 -21.48445,2.85008 -10.74223,0 -21.48446,-2.85008 -10.74223,-2.85008 -18.7989,-9.69027 l -51.02559,-43.32121 q -18.7989,-15.96045 -44.31169,-24.51069 -25.51279,-8.55024 -52.36836,-8.55024 -26.85557,0 -52.36836,8.55024 -25.5128,8.55024 -44.3117,24.51069 l -52.36836,44.46124 56.3967,47.88135 52.36836,-44.46125 q 8.05667,-6.84019 18.7989,-9.69027 10.74223,-2.85008 21.48446,-2.85008 10.74223,0 21.48446,2.85008 10.74222,2.85008 18.7989,9.69027 l 51.02558,43.32122 q 18.7989,15.96044 44.31169,25.0807 25.5128,9.12025 52.36837,9.12025 z"
     id="path1-9"
     style="stroke-width:1.23726" />
</svg>
