
<svg xmlns="http://www.w3.org/2000/svg" width="100%" height="100%" viewBox="-10 -10 1988.833333 1097.499985">
<style>text { font-family: Roboto, Arial, sans-serif !important; }</style>  <rect x="400" y="581" width="584" height="266.999985" rx="5" ry="5"
			fill="bisque"
            fill-opacity="50.000000"
            stroke="lightcoral"
            stroke-opacity="1.000000"
            stroke-width="3.000000"
            stroke-dasharray=""
            transform="" />
  <text
			x="692" 
			y="601"
			writing-mode=""
			text-anchor="middle"
			font-weight="100"
			font-style=""
			font-size=""
			fill="black"
            fill-opacity="100.000000"
            stroke="black"
            stroke-opacity="1.000000"
            stroke-width="1.000000"
            stroke-dasharray=""
            transform="" ><tspan x="692" text-anchor="middle">This is an example of a note that</tspan><tspan x="692" dy="1.2em" text-anchor="middle">could be displayed on a diagram.</tspan><tspan x="692" dy="1.2em" text-anchor="middle"> </tspan><tspan x="692" dy="1.2em" text-anchor="middle">It could explain one aspect of the model</tspan><tspan x="692" dy="1.2em" text-anchor="middle">for instance, describing relations between structs</tspan><tspan x="692" dy="1.2em" text-anchor="middle"> </tspan><tspan x="692" dy="1.2em" text-anchor="middle">The text of a UML note refers a comment with the GONGNOTE keyword which is</tspan><tspan x="692" dy="1.2em" text-anchor="middle">a special case of go Note convention. See example</tspan><tspan x="692" dy="1.2em" text-anchor="middle">for details in the go code of the models.</tspan><tspan x="692" dy="1.2em" text-anchor="middle"> </tspan></text>
  <rect
			x="400" 
			y="581"
			width="100"
			height="50"
			fill="lightblue"
            fill-opacity="100.000000"
            stroke=""
            stroke-opacity="1.000000"
            stroke-width="0.000000"
            stroke-dasharray=""
            transform="" >
</rect>
<path
			d="M532-131q-6 5-12.5 8t-14.5 3q-8 0-16-3.5t-14-9.5q-41-44-60.5-90T395-320q0-37 11-78t38-106q23-57 32-87.5t9-56.5q0-34-15-63.5T423-771q-6-6-9.5-14t-3.5-16q0-8 3-14.5t8-12.5q6-6 13.5-9t15.5-3q8 0 15 3t13 8q44 41 65.5 86t21.5 95q0 35-10.5 73.5T518-474q-25 60-34 92t-9 61q0 35 14.5 67.5T534-188q5 6 8 13t3 15q0 8-3 15.5T532-131Zm195 0q-6 5-12.5 8t-14.5 3q-8 0-16-3.5t-14-9.5q-41-44-60.5-89.5T590-319q0-37 11-79t38-106q23-57 32-87t9-56q0-34-15-64.5T618-771q-6-6-9-13.5t-3-15.5q0-8 2.5-14.5T616-827q6-6 14-9.5t16-3.5q8 0 14.5 3t12.5 8q44 41 65.5 86t21.5 95q0 35-10.5 73.5T713-473q-25 60-34 92t-9 60q0 35 15 68.5t45 65.5q5 6 7.5 13t2.5 14q0 8-3 16t-10 13Zm-390 0q-6 5-12.5 8t-14.5 3q-8 0-16-3.5t-14-9.5q-41-44-60.5-89.5T200-319q0-37 11-79t38-106q23-57 32-87t9-56q0-34-15-64.5T228-771q-7-6-10-13.5t-3-15.5q0-8 3-15t8-13q6-6 13.5-9t15.5-3q8 0 15 3t13 8q44 41 65.5 85.5T370-648q0 35-10 73.5T324-474q-25 60-34 92t-9 61q0 35 14.5 68.5T340-187q5 6 7.5 13t2.5 14q0 8-3 16t-10 13Z"
			fill=""
            fill-opacity="0.000000"
            stroke="blue"
            stroke-opacity="1.000000"
            stroke-width="2.000000"
            stroke-dasharray=""
            transform="translate(400 847.9999849999999) scale(0.2 0.2)" >
</path>
<path
			d="M532-131q-6 5-12.5 8t-14.5 3q-8 0-16-3.5t-14-9.5q-41-44-60.5-90T395-320q0-37 11-78t38-106q23-57 32-87.5t9-56.5q0-34-15-63.5T423-771q-6-6-9.5-14t-3.5-16q0-8 3-14.5t8-12.5q6-6 13.5-9t15.5-3q8 0 15 3t13 8q44 41 65.5 86t21.5 95q0 35-10.5 73.5T518-474q-25 60-34 92t-9 61q0 35 14.5 67.5T534-188q5 6 8 13t3 15q0 8-3 15.5T532-131Zm195 0q-6 5-12.5 8t-14.5 3q-8 0-16-3.5t-14-9.5q-41-44-60.5-89.5T590-319q0-37 11-79t38-106q23-57 32-87t9-56q0-34-15-64.5T618-771q-6-6-9-13.5t-3-15.5q0-8 2.5-14.5T616-827q6-6 14-9.5t16-3.5q8 0 14.5 3t12.5 8q44 41 65.5 86t21.5 95q0 35-10.5 73.5T713-473q-25 60-34 92t-9 60q0 35 15 68.5t45 65.5q5 6 7.5 13t2.5 14q0 8-3 16t-10 13Zm-390 0q-6 5-12.5 8t-14.5 3q-8 0-16-3.5t-14-9.5q-41-44-60.5-89.5T200-319q0-37 11-79t38-106q23-57 32-87t9-56q0-34-15-64.5T228-771q-7-6-10-13.5t-3-15.5q0-8 3-15t8-13q6-6 13.5-9t15.5-3q8 0 15 3t13 8q44 41 65.5 85.5T370-648q0 35-10 73.5T324-474q-25 60-34 92t-9 61q0 35 14.5 68.5T340-187q5 6 7.5 13t2.5 14q0 8-3 16t-10 13Z"
			fill=""
            fill-opacity="0.000000"
            stroke="blue"
            stroke-opacity="1.000000"
            stroke-width="2.000000"
            stroke-dasharray=""
            transform="translate(400 847.9999849999999) scale(0.2 0.2)" >
</path>
	<line x1="531.999969" y1="136.499992" x2="261.9998959999999" y2="136.499992"
			fill=""
            fill-opacity="0.000000"
            stroke="red"
            stroke-opacity="0.700000"
            stroke-width="5.000000"
            stroke-dasharray=""
            transform="" />
	<path d="M 533.767736 138.267759 L 521.999969 126.499992 M 533.767736 134.732225 L 521.999969 146.499992"
			fill=""
            fill-opacity="0.000000"
            stroke="red"
            stroke-opacity="0.700000"
            stroke-width="5.000000"
            stroke-dasharray=""
            transform="" />
	<path d="M 261.999896 136.499992 A 20.000000 20.000000 0 0 0 241.999896 156.499992"
			fill=""
            fill-opacity="0.000000"
            stroke="red"
            stroke-opacity="0.700000"
            stroke-width="5.000000"
            stroke-dasharray=""
            transform="" />
	<text xml:space="preserve"
			x="531.999969" 
			y="118.899992" 
			text-anchor="end"
			font-weight="normal"
			font-style=""
			font-size=""
			fill="black"
            fill-opacity="0.000000"
            stroke="black"
            stroke-opacity="1.000000"
            stroke-width="1.000000"
            stroke-dasharray=""
            transform="">
		<tspan xml:space="preserve"> Start Left/Top </tspan>
	</text>
	<text xml:space="preserve"
			x="531.999969" 
			y="165.499992" 
			text-anchor="end"
			font-weight="normal"
			font-style=""
			font-size=""
			fill="black"
            fill-opacity="1.000000"
            stroke="black"
            stroke-opacity="1.000000"
            stroke-width="1.000000"
            stroke-dasharray=""
            transform="">
		<tspan xml:space="preserve"> Start Right/Bottom </tspan>
	</text>
	<line x1="241.99989599999995" y1="156.499992" x2="241.99989599999995" y2="447.001996"
			fill=""
            fill-opacity="0.000000"
            stroke="red"
            stroke-opacity="0.700000"
            stroke-width="5.000000"
            stroke-dasharray=""
            transform="" />
	<path d="M 241.999896 447.001996 A 20.000000 20.000000 0 0 0 261.999896 467.001996"
			fill=""
            fill-opacity="0.000000"
            stroke="red"
            stroke-opacity="0.700000"
            stroke-width="5.000000"
            stroke-dasharray=""
            transform="" />
	<line x1="261.9998959999999" y1="467.001996" x2="547" y2="467.001996"
			fill=""
            fill-opacity="0.000000"
            stroke="red"
            stroke-opacity="0.700000"
            stroke-width="5.000000"
            stroke-dasharray=""
            transform="" />
	<path d="M 548.767767 468.769763 L 537.000000 457.001996 M 548.767767 465.234229 L 537.000000 477.001996"
			fill=""
            fill-opacity="0.000000"
            stroke="red"
            stroke-opacity="0.700000"
            stroke-width="5.000000"
            stroke-dasharray=""
            transform="" />
	<text xml:space="preserve"
			x="547" 
			y="536.001996" 
			text-anchor="end"
			font-weight="normal"
			font-style=""
			font-size=""
			fill="black"
            fill-opacity="1.000000"
            stroke="black"
            stroke-opacity="1.000000"
            stroke-width="1.000000"
            stroke-dasharray=""
            transform="">
		<tspan xml:space="preserve"> End Right/Bottom </tspan>
	</text>
	<text xml:space="preserve"
			x="507" 
			y="449.401996" 
			text-anchor="end"
			font-weight="normal"
			font-style=""
			font-size=""
			fill="blue"
            fill-opacity="0.000000"
            stroke="blue"
            stroke-opacity="1.000000"
            stroke-width="1.000000"
            stroke-dasharray=""
            transform="">
		<tspan xml:space="preserve"> End Left/Top </tspan>
	</text>
	<line x1="531.999969" y1="254.431192" x2="170.99997499999998" y2="254.431192"
			fill=""
            fill-opacity="0.000000"
            stroke="green"
            stroke-opacity="1.000000"
            stroke-width="4.000000"
            stroke-dasharray=""
            transform="" />
	<path d="M 170.999975 254.431192 A 8.000000 8.000000 0 0 0 162.999975 262.431192"
			fill=""
            fill-opacity="0.000000"
            stroke="green"
            stroke-opacity="1.000000"
            stroke-width="4.000000"
            stroke-dasharray=""
            transform="" />
	<text xml:space="preserve"
			x="402.99993799999993" 
			y="291.443704" 
			text-anchor="end"
			font-weight="light"
			font-style=""
			font-size=""
			fill="cyan"
            fill-opacity="100.000000"
            stroke="cyan"
            stroke-opacity="1.000000"
            stroke-width="1.000000"
            stroke-dasharray=""
            transform="">
		<tspan xml:space="preserve"> Start Anchored 1 </tspan>
	</text>
	<line x1="162.99997499999998" y1="262.431192" x2="162.99997499999998" y2="749.126273105265"
			fill=""
            fill-opacity="0.000000"
            stroke="green"
            stroke-opacity="1.000000"
            stroke-width="4.000000"
            stroke-dasharray=""
            transform="" />
	<path d="M 162.999975 749.126273 A 8.000000 8.000000 0 0 0 170.999975 757.126273"
			fill=""
            fill-opacity="0.000000"
            stroke="green"
            stroke-opacity="1.000000"
            stroke-width="4.000000"
            stroke-dasharray=""
            transform="" />
	<line x1="170.99997499999998" y1="757.126273105265" x2="400" y2="757.126273105265"
			fill=""
            fill-opacity="0.000000"
            stroke="green"
            stroke-opacity="1.000000"
            stroke-width="4.000000"
            stroke-dasharray=""
            transform="" />
	<path d="M 401.414214 758.540487 L 390.000000 747.126273 M 401.414214 755.712060 L 390.000000 767.126273"
			fill=""
            fill-opacity="0.000000"
            stroke="green"
            stroke-opacity="1.000000"
            stroke-width="4.000000"
            stroke-dasharray=""
            transform="" />
	<line x1="631.9999859999999" y1="316" x2="631.9999859999999" y2="336.00206699999995"
			fill=""
            fill-opacity="0.000000"
            stroke="black"
            stroke-opacity="1.000000"
            stroke-width="2.000000"
            stroke-dasharray=""
            transform="" />
	<path d="M 631.292879 315.292893 L 642.999986 327.000000 M 632.707093 315.292893 L 620.999986 327.000000"
			fill=""
            fill-opacity="0.000000"
            stroke="black"
            stroke-opacity="1.000000"
            stroke-width="2.000000"
            stroke-dasharray=""
            transform="" />
	<path d="M 631.999986 336.002067 A 10.000000 10.000000 0 0 0 641.999986 346.002067"
			fill=""
            fill-opacity="0.000000"
            stroke="black"
            stroke-opacity="1.000000"
            stroke-width="2.000000"
            stroke-dasharray=""
            transform="" />
	<line x1="641.9999859999999" y1="346.00206699999995" x2="652" y2="346.00206699999995"
			fill=""
            fill-opacity="0.000000"
            stroke="black"
            stroke-opacity="1.000000"
            stroke-width="2.000000"
            stroke-dasharray=""
            transform="" />
	<path d="M 652.000000 346.002067 A 10.000000 10.000000 0 0 1 662.000000 356.002067"
			fill=""
            fill-opacity="0.000000"
            stroke="black"
            stroke-opacity="1.000000"
            stroke-width="2.000000"
            stroke-dasharray=""
            transform="" />
	<line x1="662" y1="356.00206699999995" x2="662" y2="417"
			fill=""
            fill-opacity="0.000000"
            stroke="black"
            stroke-opacity="1.000000"
            stroke-width="2.000000"
            stroke-dasharray=""
            transform="" />
	<path d="M 662.707107 417.707107 L 651.000000 406.000000 M 661.292893 417.707107 L 673.000000 406.000000"
			fill=""
            fill-opacity="0.000000"
            stroke="black"
            stroke-opacity="1.000000"
            stroke-width="2.000000"
            stroke-dasharray=""
            transform="" />
  <rect x="547" y="417" width="200" height="132" rx="3" ry="3"
			fill="lavender"
            fill-opacity="50.000000"
            stroke="turquoise"
            stroke-opacity="1.000000"
            stroke-width="1.000000"
            stroke-dasharray=""
            transform="" />
  <rect x="1125.333333" y="62.333332" width="853" height="125.571444" rx="20" ry="20"
			fill=""
            fill-opacity="0.000000"
            stroke="black"
            stroke-opacity="1.000000"
            stroke-width="1.000000"
            stroke-dasharray=""
            transform="" />
  <text
			x="1551.833333" 
			y="125.119054"
			writing-mode=""
			text-anchor="middle"
			font-weight=""
			font-style=""
			font-size="27px"
			fill="black"
            fill-opacity="1.000000"
            stroke="black"
            stroke-opacity="1.000000"
            stroke-width="1.000000"
            stroke-dasharray=""
            transform="" ><tspan x="1551.833333" text-anchor="middle">Start</tspan></text>
  <rect x="1081.769231" y="385.256327" width="624" height="384" rx="20" ry="20"
			fill=""
            fill-opacity="0.000000"
            stroke="black"
            stroke-opacity="1.000000"
            stroke-width="1.000000"
            stroke-dasharray=""
            transform="" />
  <text
			x="1393.769231" 
			y="577.256327"
			writing-mode=""
			text-anchor="middle"
			font-weight=""
			font-style=""
			font-size="27px"
			fill="black"
            fill-opacity="1.000000"
            stroke="black"
            stroke-opacity="1.000000"
            stroke-width="1.000000"
            stroke-dasharray=""
            transform="" ><tspan x="1393.769231" text-anchor="middle">End</tspan></text>
	<line x1="1457.000205" y1="187.904776" x2="1457.000205" y2="308.005197756364"
			fill=""
            fill-opacity="0.000000"
            stroke="black"
            stroke-opacity="1.000000"
            stroke-width="1.000000"
            stroke-dasharray=""
            transform="" />
	<path d="M 1456.646652 187.551223 L 1472.000205 202.904776 M 1457.353758 187.551223 L 1442.000205 202.904776"
			fill=""
            fill-opacity="0.000000"
            stroke="black"
            stroke-opacity="1.000000"
            stroke-width="1.000000"
            stroke-dasharray=""
            transform="" />
	<path d="M 1457.000205 308.005198 A 20.000000 20.000000 0 0 1 1457.000205 308.005198"
			fill=""
            fill-opacity="0.000000"
            stroke="black"
            stroke-opacity="1.000000"
            stroke-width="1.000000"
            stroke-dasharray=""
            transform="" />
	<text xml:space="preserve"
			x="1457.000205" 
			y="221.904776" 
			text-anchor="end"
			font-weight=""
			font-style=""
			font-size=""
			fill="black"
            fill-opacity="1.000000"
            stroke="black"
            stroke-opacity="1.000000"
            stroke-width="1.000000"
            stroke-dasharray=""
            transform="">
		<tspan xml:space="preserve"> LEFT_OR_TOP </tspan>
	</text>
	<text xml:space="preserve"
			x="1457.000205" 
			y="221.904776" 
			text-anchor="start"
			font-weight=""
			font-style=""
			font-size="16"
			fill="black"
            fill-opacity="1.000000"
            stroke="black"
            stroke-opacity="1.000000"
            stroke-width="1.000000"
            stroke-dasharray=""
            transform="">
		<tspan xml:space="preserve"> RIGHT_OR_BOTTOM </tspan>
	</text>
	<line x1="1457.000205" y1="308.005197756364" x2="1457.000205" y2="308.005197756364"
			fill=""
            fill-opacity="0.000000"
            stroke="black"
            stroke-opacity="1.000000"
            stroke-width="1.000000"
            stroke-dasharray=""
            transform="" />
	<path d="M 1457.000205 308.005198 A 20.000000 20.000000 0 0 0 1457.000205 308.005198"
			fill=""
            fill-opacity="0.000000"
            stroke="black"
            stroke-opacity="1.000000"
            stroke-width="1.000000"
            stroke-dasharray=""
            transform="" />
	<line x1="1457.000205" y1="308.005197756364" x2="1457.000205" y2="385.256327"
			fill=""
            fill-opacity="0.000000"
            stroke="black"
            stroke-opacity="1.000000"
            stroke-width="1.000000"
            stroke-dasharray=""
            transform="" />
	<path d="M 1457.353758 385.609880 L 1442.000205 370.256327 M 1456.646652 385.609880 L 1472.000205 370.256327"
			fill=""
            fill-opacity="0.000000"
            stroke="black"
            stroke-opacity="1.000000"
            stroke-width="1.000000"
            stroke-dasharray=""
            transform="" />
	<text xml:space="preserve"
			x="1457.000205" 
			y="362.656327" 
			text-anchor="end"
			font-weight=""
			font-style=""
			font-size=""
			fill="black"
            fill-opacity="1.000000"
            stroke="black"
            stroke-opacity="1.000000"
            stroke-width="1.000000"
            stroke-dasharray=""
            transform="">
		<tspan xml:space="preserve"> LEFT_OR_TOP </tspan>
	</text>
	<text xml:space="preserve"
			x="1457.000205" 
			y="362.656327" 
			text-anchor="start"
			font-weight=""
			font-style=""
			font-size="16"
			fill="black"
            fill-opacity="1.000000"
            stroke="black"
            stroke-opacity="1.000000"
            stroke-width="1.000000"
            stroke-dasharray=""
            transform="">
		<tspan xml:space="preserve"> RIGHT_OR_BOTTOM </tspan>
	</text>
	<line x1="1705.769231" y1="634.004999" x2="1861.0003530000001" y2="634.004999"
			fill=""
            fill-opacity="0.000000"
            stroke="black"
            stroke-opacity="1.000000"
            stroke-width="1.000000"
            stroke-dasharray=""
            transform="" />
	<path d="M 1705.415678 634.358552 L 1720.769231 619.004999 M 1705.415678 633.651446 L 1720.769231 649.004999"
			fill=""
            fill-opacity="0.000000"
            stroke="black"
            stroke-opacity="1.000000"
            stroke-width="1.000000"
            stroke-dasharray=""
            transform="" />
	<path d="M 1861.000353 634.004999 A 40.000000 40.000000 0 0 0 1901.000353 594.004999"
			fill=""
            fill-opacity="0.000000"
            stroke="black"
            stroke-opacity="1.000000"
            stroke-width="1.000000"
            stroke-dasharray=""
            transform="" />
	<text xml:space="preserve"
			x="1705.769231" 
			y="611.404999" 
			text-anchor="start"
			font-weight=""
			font-style=""
			font-size=""
			fill="black"
            fill-opacity="1.000000"
            stroke="black"
            stroke-opacity="1.000000"
            stroke-width="1.000000"
            stroke-dasharray=""
            transform="">
		<tspan xml:space="preserve"> LEFT_OR_TOP </tspan>
	</text>
	<text xml:space="preserve"
			x="1705.769231" 
			y="668.004999" 
			text-anchor="start"
			font-weight=""
			font-style=""
			font-size="16"
			fill="black"
            fill-opacity="1.000000"
            stroke="black"
            stroke-opacity="1.000000"
            stroke-width="1.000000"
            stroke-dasharray=""
            transform="">
		<tspan xml:space="preserve"> RIGHT_OR_BOTTOM </tspan>
	</text>
	<text xml:space="preserve"
			x="1705.769231" 
			y="708.004999" 
			text-anchor="start"
			font-weight=""
			font-style=""
			font-size=""
			fill="red"
            fill-opacity="1.000000"
            stroke="red"
            stroke-opacity="1.000000"
            stroke-width="1.000000"
            stroke-dasharray=""
            transform="">
		<tspan xml:space="preserve"> AA_RIGHT_OR_BOTTOM_BELOW </tspan>
	</text>
	<text xml:space="preserve"
			x="1705.769231" 
			y="571.404999" 
			text-anchor="start"
			font-weight=""
			font-style=""
			font-size=""
			fill="blue"
            fill-opacity="1.000000"
            stroke="blue"
            stroke-opacity="1.000000"
            stroke-width="1.000000"
            stroke-dasharray=""
            transform="">
		<tspan xml:space="preserve"> LEFT_OR_TOP_ABOVE </tspan>
	</text>
	<line x1="1901.0003530000001" y1="594.004999" x2="1901.0003530000001" y2="187.904776"
			fill=""
            fill-opacity="0.000000"
            stroke="black"
            stroke-opacity="1.000000"
            stroke-width="1.000000"
            stroke-dasharray=""
            transform="" />
	<path d="M 1900.646800 187.551223 L 1916.000353 202.904776 M 1901.353906 187.551223 L 1886.000353 202.904776"
			fill=""
            fill-opacity="0.000000"
            stroke="black"
            stroke-opacity="1.000000"
            stroke-width="1.000000"
            stroke-dasharray=""
            transform="" />
	<text xml:space="preserve"
			x="1901.0003530000001" 
			y="221.904776" 
			text-anchor="end"
			font-weight=""
			font-style=""
			font-size=""
			fill="black"
            fill-opacity="1.000000"
            stroke="black"
            stroke-opacity="1.000000"
            stroke-width="1.000000"
            stroke-dasharray=""
            transform="">
		<tspan xml:space="preserve"> LEFT_OR_TOP </tspan>
	</text>
	<text xml:space="preserve"
			x="1901.0003530000001" 
			y="221.904776" 
			text-anchor="start"
			font-weight=""
			font-style=""
			font-size="16"
			fill="black"
            fill-opacity="1.000000"
            stroke="black"
            stroke-opacity="1.000000"
            stroke-width="1.000000"
            stroke-dasharray=""
            transform="">
		<tspan xml:space="preserve"> RIGHT_OR_BOTTOM </tspan>
	</text>
	<text xml:space="preserve"
			x="1901.0003530000001" 
			y="261.90477599999997" 
			text-anchor="start"
			font-weight=""
			font-style=""
			font-size=""
			fill="red"
            fill-opacity="1.000000"
            stroke="red"
            stroke-opacity="1.000000"
            stroke-width="1.000000"
            stroke-dasharray=""
            transform="">
		<tspan xml:space="preserve"> AA_RIGHT_OR_BOTTOM_BELOW </tspan>
	</text>
	<text xml:space="preserve"
			x="1901.0003530000001" 
			y="181.904776" 
			text-anchor="end"
			font-weight=""
			font-style=""
			font-size=""
			fill="blue"
            fill-opacity="1.000000"
            stroke="blue"
            stroke-opacity="1.000000"
            stroke-width="1.000000"
            stroke-dasharray=""
            transform="">
		<tspan xml:space="preserve"> LEFT_OR_TOP_ABOVE </tspan>
	</text>
	<line x1="1125.333333" y1="140.257445002864" x2="827.9997010000001" y2="140.257445002864"
			fill=""
            fill-opacity="0.000000"
            stroke="black"
            stroke-opacity="1.000000"
            stroke-width="1.000000"
            stroke-dasharray=""
            transform="" />
	<path d="M 1125.686886 140.610998 L 1110.333333 125.257445 M 1125.686886 139.903892 L 1110.333333 155.257445"
			fill=""
            fill-opacity="0.000000"
            stroke="black"
            stroke-opacity="1.000000"
            stroke-width="1.000000"
            stroke-dasharray=""
            transform="" />
	<path d="M 827.999701 140.257445 A 30.000000 30.000000 0 0 0 797.999701 170.257445"
			fill=""
            fill-opacity="0.000000"
            stroke="black"
            stroke-opacity="1.000000"
            stroke-width="1.000000"
            stroke-dasharray=""
            transform="" />
	<text xml:space="preserve"
			x="1125.333333" 
			y="117.657445002864" 
			text-anchor="end"
			font-weight=""
			font-style=""
			font-size=""
			fill="black"
            fill-opacity="1.000000"
            stroke="black"
            stroke-opacity="1.000000"
            stroke-width="1.000000"
            stroke-dasharray=""
            transform="">
		<tspan xml:space="preserve"> LEFT_OR_TOP </tspan>
	</text>
	<text xml:space="preserve"
			x="1125.333333" 
			y="174.257445002864" 
			text-anchor="end"
			font-weight=""
			font-style=""
			font-size="16"
			fill="black"
            fill-opacity="1.000000"
            stroke="black"
            stroke-opacity="1.000000"
            stroke-width="1.000000"
            stroke-dasharray=""
            transform="">
		<tspan xml:space="preserve"> RIGHT_OR_BOTTOM </tspan>
	</text>
	<line x1="797.9997010000001" y1="170.257445002864" x2="797.9997010000001" y2="512.005127"
			fill=""
            fill-opacity="0.000000"
            stroke="black"
            stroke-opacity="1.000000"
            stroke-width="1.000000"
            stroke-dasharray=""
            transform="" />
	<path d="M 797.999701 512.005127 A 30.000000 30.000000 0 0 0 827.999701 542.005127"
			fill=""
            fill-opacity="0.000000"
            stroke="black"
            stroke-opacity="1.000000"
            stroke-width="1.000000"
            stroke-dasharray=""
            transform="" />
	<line x1="827.9997010000001" y1="542.005127" x2="1081.769231" y2="542.005127"
			fill=""
            fill-opacity="0.000000"
            stroke="black"
            stroke-opacity="1.000000"
            stroke-width="1.000000"
            stroke-dasharray=""
            transform="" />
	<path d="M 1082.122784 542.358680 L 1066.769231 527.005127 M 1082.122784 541.651574 L 1066.769231 557.005127"
			fill=""
            fill-opacity="0.000000"
            stroke="black"
            stroke-opacity="1.000000"
            stroke-width="1.000000"
            stroke-dasharray=""
            transform="" />
	<text xml:space="preserve"
			x="1081.769231" 
			y="519.405127" 
			text-anchor="end"
			font-weight=""
			font-style=""
			font-size=""
			fill="black"
            fill-opacity="1.000000"
            stroke="black"
            stroke-opacity="1.000000"
            stroke-width="1.000000"
            stroke-dasharray=""
            transform="">
		<tspan xml:space="preserve"> LEFT_OR_TOP </tspan>
	</text>
	<text xml:space="preserve"
			x="1081.769231" 
			y="576.005127" 
			text-anchor="end"
			font-weight=""
			font-style=""
			font-size="16"
			fill="black"
            fill-opacity="1.000000"
            stroke="black"
            stroke-opacity="1.000000"
            stroke-width="1.000000"
            stroke-dasharray=""
            transform="">
		<tspan xml:space="preserve"> RIGHT_OR_BOTTOM </tspan>
	</text>
  <rect x="531.999969" y="79" width="237" height="237" rx="3" ry="3"
			fill="lightcyan"
            fill-opacity="100.000000"
            stroke="darkcyan"
            stroke-opacity="1.000000"
            stroke-width="2.000000"
            stroke-dasharray=""
            transform="" />
  <rect
			x="650.499969" 
			y="119"
			width="100"
			height="30"
			fill="lightgrey"
            fill-opacity="40.000000"
            stroke="bisque"
            stroke-opacity="1.000000"
            stroke-width="1.000000"
            stroke-dasharray=""
            transform="" >
</rect>
<path
			d="M532-131q-6 5-12.5 8t-14.5 3q-8 0-16-3.5t-14-9.5q-41-44-60.5-90T395-320q0-37 11-78t38-106q23-57 32-87.5t9-56.5q0-34-15-63.5T423-771q-6-6-9.5-14t-3.5-16q0-8 3-14.5t8-12.5q6-6 13.5-9t15.5-3q8 0 15 3t13 8q44 41 65.5 86t21.5 95q0 35-10.5 73.5T518-474q-25 60-34 92t-9 61q0 35 14.5 67.5T534-188q5 6 8 13t3 15q0 8-3 15.5T532-131Zm195 0q-6 5-12.5 8t-14.5 3q-8 0-16-3.5t-14-9.5q-41-44-60.5-89.5T590-319q0-37 11-79t38-106q23-57 32-87t9-56q0-34-15-64.5T618-771q-6-6-9-13.5t-3-15.5q0-8 2.5-14.5T616-827q6-6 14-9.5t16-3.5q8 0 14.5 3t12.5 8q44 41 65.5 86t21.5 95q0 35-10.5 73.5T713-473q-25 60-34 92t-9 60q0 35 15 68.5t45 65.5q5 6 7.5 13t2.5 14q0 8-3 16t-10 13Zm-390 0q-6 5-12.5 8t-14.5 3q-8 0-16-3.5t-14-9.5q-41-44-60.5-89.5T200-319q0-37 11-79t38-106q23-57 32-87t9-56q0-34-15-64.5T228-771q-7-6-10-13.5t-3-15.5q0-8 3-15t8-13q6-6 13.5-9t15.5-3q8 0 15 3t13 8q44 41 65.5 85.5T370-648q0 35-10 73.5T324-474q-25 60-34 92t-9 61q0 35 14.5 68.5T340-187q5 6 7.5 13t2.5 14q0 8-3 16t-10 13Z"
			fill="black"
            fill-opacity="0.500000"
            stroke="black"
            stroke-opacity="1.000000"
            stroke-width="1.000000"
            stroke-dasharray=""
            transform="translate(531.999969 316) scale(0.246875 0.246875)" >
</path>
</svg>
