
<svg xmlns="http://www.w3.org/2000/svg" width="100%" height="100%" viewBox="-10 -10 2043.833333 1097.499985">
<style>text { font-family: Roboto, Arial, sans-serif !important; }</style>  <rect x="400" y="581" width="584" height="266.999985" rx="5" ry="5"
			fill="bisque"
            fill-opacity="50.000000"
            stroke="lightcoral"
            stroke-opacity="1.000000"
            stroke-width="3.000000"
            stroke-dasharray=""
            transform="" />
  <text
			x="692" 
			y="601"
			writing-mode=""
			text-anchor="middle"
			font-weight="100"
			font-style=""
			font-size=""
			fill="black"
            fill-opacity="100.000000"
            stroke="black"
            stroke-opacity="1.000000"
            stroke-width="1.000000"
            stroke-dasharray=""
            transform="" ><tspan x="692" text-anchor="middle">This is an example of a note that</tspan><tspan x="692" dy="1.2em" text-anchor="middle">could be displayed on a diagram.</tspan><tspan x="692" dy="1.2em" text-anchor="middle"> </tspan><tspan x="692" dy="1.2em" text-anchor="middle">It could explain one aspect of the model</tspan><tspan x="692" dy="1.2em" text-anchor="middle">for instance, describing relations between structs</tspan><tspan x="692" dy="1.2em" text-anchor="middle"> </tspan><tspan x="692" dy="1.2em" text-anchor="middle">The text of a UML note refers a comment with the GONGNOTE keyword which is</tspan><tspan x="692" dy="1.2em" text-anchor="middle">a special case of go Note convention. See example</tspan><tspan x="692" dy="1.2em" text-anchor="middle">for details in the go code of the models.</tspan><tspan x="692" dy="1.2em" text-anchor="middle"> </tspan></text>
  <rect
			x="400" 
			y="581"
			width="100"
			height="50"
			fill="lightblue"
            fill-opacity="100.000000"
            stroke=""
            stroke-opacity="1.000000"
            stroke-width="0.000000"
            stroke-dasharray=""
            transform="" >
</rect>
<path
			d="M532-131q-6 5-12.5 8t-14.5 3q-8 0-16-3.5t-14-9.5q-41-44-60.5-90T395-320q0-37 11-78t38-106q23-57 32-87.5t9-56.5q0-34-15-63.5T423-771q-6-6-9.5-14t-3.5-16q0-8 3-14.5t8-12.5q6-6 13.5-9t15.5-3q8 0 15 3t13 8q44 41 65.5 86t21.5 95q0 35-10.5 73.5T518-474q-25 60-34 92t-9 61q0 35 14.5 67.5T534-188q5 6 8 13t3 15q0 8-3 15.5T532-131Zm195 0q-6 5-12.5 8t-14.5 3q-8 0-16-3.5t-14-9.5q-41-44-60.5-89.5T590-319q0-37 11-79t38-106q23-57 32-87t9-56q0-34-15-64.5T618-771q-6-6-9-13.5t-3-15.5q0-8 2.5-14.5T616-827q6-6 14-9.5t16-3.5q8 0 14.5 3t12.5 8q44 41 65.5 86t21.5 95q0 35-10.5 73.5T713-473q-25 60-34 92t-9 60q0 35 15 68.5t45 65.5q5 6 7.5 13t2.5 14q0 8-3 16t-10 13Zm-390 0q-6 5-12.5 8t-14.5 3q-8 0-16-3.5t-14-9.5q-41-44-60.5-89.5T200-319q0-37 11-79t38-106q23-57 32-87t9-56q0-34-15-64.5T228-771q-7-6-10-13.5t-3-15.5q0-8 3-15t8-13q6-6 13.5-9t15.5-3q8 0 15 3t13 8q44 41 65.5 85.5T370-648q0 35-10 73.5T324-474q-25 60-34 92t-9 61q0 35 14.5 68.5T340-187q5 6 7.5 13t2.5 14q0 8-3 16t-10 13Z"
			fill=""
            fill-opacity="0.000000"
            stroke="blue"
            stroke-opacity="1.000000"
            stroke-width="2.000000"
            stroke-dasharray=""
            transform="translate(400 847.9999849999999) scale(0.2 0.2)" >
</path>
<path
			d="M532-131q-6 5-12.5 8t-14.5 3q-8 0-16-3.5t-14-9.5q-41-44-60.5-90T395-320q0-37 11-78t38-106q23-57 32-87.5t9-56.5q0-34-15-63.5T423-771q-6-6-9.5-14t-3.5-16q0-8 3-14.5t8-12.5q6-6 13.5-9t15.5-3q8 0 15 3t13 8q44 41 65.5 86t21.5 95q0 35-10.5 73.5T518-474q-25 60-34 92t-9 61q0 35 14.5 67.5T534-188q5 6 8 13t3 15q0 8-3 15.5T532-131Zm195 0q-6 5-12.5 8t-14.5 3q-8 0-16-3.5t-14-9.5q-41-44-60.5-89.5T590-319q0-37 11-79t38-106q23-57 32-87t9-56q0-34-15-64.5T618-771q-6-6-9-13.5t-3-15.5q0-8 2.5-14.5T616-827q6-6 14-9.5t16-3.5q8 0 14.5 3t12.5 8q44 41 65.5 86t21.5 95q0 35-10.5 73.5T713-473q-25 60-34 92t-9 60q0 35 15 68.5t45 65.5q5 6 7.5 13t2.5 14q0 8-3 16t-10 13Zm-390 0q-6 5-12.5 8t-14.5 3q-8 0-16-3.5t-14-9.5q-41-44-60.5-89.5T200-319q0-37 11-79t38-106q23-57 32-87t9-56q0-34-15-64.5T228-771q-7-6-10-13.5t-3-15.5q0-8 3-15t8-13q6-6 13.5-9t15.5-3q8 0 15 3t13 8q44 41 65.5 85.5T370-648q0 35-10 73.5T324-474q-25 60-34 92t-9 61q0 35 14.5 68.5T340-187q5 6 7.5 13t2.5 14q0 8-3 16t-10 13Z"
			fill=""
            fill-opacity="0.000000"
            stroke="blue"
            stroke-opacity="1.000000"
            stroke-width="2.000000"
            stroke-dasharray=""
            transform="translate(400 847.9999849999999) scale(0.2 0.2)" >
</path>
	<line x1="522.999969" y1="95.847542" x2="281.00002399999994" y2="95.847542"
			fill=""
            fill-opacity="0.000000"
            stroke="red"
            stroke-opacity="0.700000"
            stroke-width="5.000000"
            stroke-dasharray=""
            transform="" />
	<path d="M 524.767736 97.615309 L 512.999969 85.847542 M 524.767736 94.079775 L 512.999969 105.847542"
			fill=""
            fill-opacity="0.000000"
            stroke="red"
            stroke-opacity="0.700000"
            stroke-width="5.000000"
            stroke-dasharray=""
            transform="" />
	<path d="M 281.000024 95.847542 A 20.000000 20.000000 0 0 0 261.000024 115.847542"
			fill=""
            fill-opacity="0.000000"
            stroke="red"
            stroke-opacity="0.700000"
            stroke-width="5.000000"
            stroke-dasharray=""
            transform="" />
	<text xml:space="preserve"
			x="522.999969" 
			y="78.24754200000001" 
			text-anchor="end"
			font-weight="normal"
			font-style=""
			font-size=""
			fill="black"
            fill-opacity="0.000000"
            stroke="black"
            stroke-opacity="1.000000"
            stroke-width="1.000000"
            stroke-dasharray=""
            transform="">
		<tspan xml:space="preserve"> Start Left/Top </tspan>
	</text>
	<text xml:space="preserve"
			x="522.999969" 
			y="124.847542" 
			text-anchor="end"
			font-weight="normal"
			font-style=""
			font-size=""
			fill="black"
            fill-opacity="1.000000"
            stroke="black"
            stroke-opacity="1.000000"
            stroke-width="1.000000"
            stroke-dasharray=""
            transform="">
		<tspan xml:space="preserve"> Start Right/Bottom </tspan>
	</text>
	<line x1="261.00002399999994" y1="115.847542" x2="261.00002399999994" y2="447.109332"
			fill=""
            fill-opacity="0.000000"
            stroke="red"
            stroke-opacity="0.700000"
            stroke-width="5.000000"
            stroke-dasharray=""
            transform="" />
	<path d="M 261.000024 447.109332 A 20.000000 20.000000 0 0 0 281.000024 467.109332"
			fill=""
            fill-opacity="0.000000"
            stroke="red"
            stroke-opacity="0.700000"
            stroke-width="5.000000"
            stroke-dasharray=""
            transform="" />
	<line x1="281.00002399999994" y1="467.109332" x2="554" y2="467.109332"
			fill=""
            fill-opacity="0.000000"
            stroke="red"
            stroke-opacity="0.700000"
            stroke-width="5.000000"
            stroke-dasharray=""
            transform="" />
	<path d="M 555.767767 468.877099 L 544.000000 457.109332 M 555.767767 465.341565 L 544.000000 477.109332"
			fill=""
            fill-opacity="0.000000"
            stroke="red"
            stroke-opacity="0.700000"
            stroke-width="5.000000"
            stroke-dasharray=""
            transform="" />
	<text xml:space="preserve"
			x="554" 
			y="536.109332" 
			text-anchor="end"
			font-weight="normal"
			font-style=""
			font-size=""
			fill="black"
            fill-opacity="1.000000"
            stroke="black"
            stroke-opacity="1.000000"
            stroke-width="1.000000"
            stroke-dasharray=""
            transform="">
		<tspan xml:space="preserve"> End Right/Bottom </tspan>
	</text>
	<text xml:space="preserve"
			x="514" 
			y="449.509332" 
			text-anchor="end"
			font-weight="normal"
			font-style=""
			font-size=""
			fill="blue"
            fill-opacity="0.000000"
            stroke="blue"
            stroke-opacity="1.000000"
            stroke-width="1.000000"
            stroke-dasharray=""
            transform="">
		<tspan xml:space="preserve"> End Left/Top </tspan>
	</text>
	<line x1="522.999969" y1="219.431192" x2="161.99997499999998" y2="219.431192"
			fill=""
            fill-opacity="0.000000"
            stroke="green"
            stroke-opacity="1.000000"
            stroke-width="4.000000"
            stroke-dasharray=""
            transform="" />
	<path d="M 161.999975 219.431192 A 8.000000 8.000000 0 0 0 153.999975 227.431192"
			fill=""
            fill-opacity="0.000000"
            stroke="green"
            stroke-opacity="1.000000"
            stroke-width="4.000000"
            stroke-dasharray=""
            transform="" />
	<text xml:space="preserve"
			x="393.99993799999993" 
			y="256.443704" 
			text-anchor="end"
			font-weight="light"
			font-style=""
			font-size=""
			fill="cyan"
            fill-opacity="100.000000"
            stroke="cyan"
            stroke-opacity="1.000000"
            stroke-width="1.000000"
            stroke-dasharray=""
            transform="">
		<tspan xml:space="preserve"> Start Anchored 1 </tspan>
	</text>
	<line x1="153.99997499999998" y1="227.431192" x2="153.99997499999998" y2="749.126273105265"
			fill=""
            fill-opacity="0.000000"
            stroke="green"
            stroke-opacity="1.000000"
            stroke-width="4.000000"
            stroke-dasharray=""
            transform="" />
	<path d="M 153.999975 749.126273 A 8.000000 8.000000 0 0 0 161.999975 757.126273"
			fill=""
            fill-opacity="0.000000"
            stroke="green"
            stroke-opacity="1.000000"
            stroke-width="4.000000"
            stroke-dasharray=""
            transform="" />
	<line x1="161.99997499999998" y1="757.126273105265" x2="400" y2="757.126273105265"
			fill=""
            fill-opacity="0.000000"
            stroke="green"
            stroke-opacity="1.000000"
            stroke-width="4.000000"
            stroke-dasharray=""
            transform="" />
	<path d="M 401.414214 758.540487 L 390.000000 747.126273 M 401.414214 755.712060 L 390.000000 767.126273"
			fill=""
            fill-opacity="0.000000"
            stroke="green"
            stroke-opacity="1.000000"
            stroke-width="4.000000"
            stroke-dasharray=""
            transform="" />
	<line x1="622.9999859999999" y1="281" x2="622.9999859999999" y2="311.00206699999995"
			fill=""
            fill-opacity="0.000000"
            stroke="black"
            stroke-opacity="1.000000"
            stroke-width="2.000000"
            stroke-dasharray=""
            transform="" />
	<path d="M 622.292879 280.292893 L 633.999986 292.000000 M 623.707093 280.292893 L 611.999986 292.000000"
			fill=""
            fill-opacity="0.000000"
            stroke="black"
            stroke-opacity="1.000000"
            stroke-width="2.000000"
            stroke-dasharray=""
            transform="" />
	<path d="M 622.999986 311.002067 A 0.000000 0.000000 0 0 1 622.999986 311.002067"
			fill=""
            fill-opacity="0.000000"
            stroke="black"
            stroke-opacity="1.000000"
            stroke-width="2.000000"
            stroke-dasharray=""
            transform="" />
	<line x1="622.9999859999999" y1="311.00206699999995" x2="669" y2="311.00206699999995"
			fill=""
            fill-opacity="0.000000"
            stroke="black"
            stroke-opacity="1.000000"
            stroke-width="2.000000"
            stroke-dasharray=""
            transform="" />
	<path d="M 669.000000 311.002067 A 0.000000 0.000000 0 0 0 669.000000 311.002067"
			fill=""
            fill-opacity="0.000000"
            stroke="black"
            stroke-opacity="1.000000"
            stroke-width="2.000000"
            stroke-dasharray=""
            transform="" />
	<line x1="669" y1="311.00206699999995" x2="669" y2="404"
			fill=""
            fill-opacity="0.000000"
            stroke="black"
            stroke-opacity="1.000000"
            stroke-width="2.000000"
            stroke-dasharray=""
            transform="" />
	<path d="M 669.707107 404.707107 L 658.000000 393.000000 M 668.292893 404.707107 L 680.000000 393.000000"
			fill=""
            fill-opacity="0.000000"
            stroke="black"
            stroke-opacity="1.000000"
            stroke-width="2.000000"
            stroke-dasharray=""
            transform="" />
  <rect x="554" y="404" width="200" height="132" rx="3" ry="3"
			fill="lavender"
            fill-opacity="50.000000"
            stroke="turquoise"
            stroke-opacity="1.000000"
            stroke-width="1.000000"
            stroke-dasharray=""
            transform="" />
  <rect x="1180.333333" y="77.333332" width="853" height="125.571444" rx="20" ry="20"
			fill=""
            fill-opacity="0.000000"
            stroke="black"
            stroke-opacity="1.000000"
            stroke-width="1.000000"
            stroke-dasharray=""
            transform="" />
  <text
			x="1606.833333" 
			y="140.119054"
			writing-mode=""
			text-anchor="middle"
			font-weight=""
			font-style=""
			font-size="27px"
			fill="black"
            fill-opacity="1.000000"
            stroke="black"
            stroke-opacity="1.000000"
            stroke-width="1.000000"
            stroke-dasharray=""
            transform="" ><tspan x="1606.833333" text-anchor="middle">Start</tspan></text>
  <rect x="1081.769231" y="385.256327" width="624" height="384" rx="20" ry="20"
			fill=""
            fill-opacity="0.000000"
            stroke="black"
            stroke-opacity="1.000000"
            stroke-width="1.000000"
            stroke-dasharray=""
            transform="" />
  <text
			x="1393.769231" 
			y="577.256327"
			writing-mode=""
			text-anchor="middle"
			font-weight=""
			font-style=""
			font-size="27px"
			fill="black"
            fill-opacity="1.000000"
            stroke="black"
            stroke-opacity="1.000000"
            stroke-width="1.000000"
            stroke-dasharray=""
            transform="" ><tspan x="1393.769231" text-anchor="middle">End</tspan></text>
	<line x1="1512.000205" y1="202.904776" x2="1512.000205" y2="323.005197756364"
			fill=""
            fill-opacity="0.000000"
            stroke="black"
            stroke-opacity="1.000000"
            stroke-width="1.000000"
            stroke-dasharray=""
            transform="" />
	<path d="M 1511.646652 202.551223 L 1527.000205 217.904776 M 1512.353758 202.551223 L 1497.000205 217.904776"
			fill=""
            fill-opacity="0.000000"
            stroke="black"
            stroke-opacity="1.000000"
            stroke-width="1.000000"
            stroke-dasharray=""
            transform="" />
	<path d="M 1512.000205 323.005198 A 20.000000 20.000000 0 0 1 1512.000205 323.005198"
			fill=""
            fill-opacity="0.000000"
            stroke="black"
            stroke-opacity="1.000000"
            stroke-width="1.000000"
            stroke-dasharray=""
            transform="" />
	<text xml:space="preserve"
			x="1512.000205" 
			y="236.904776" 
			text-anchor="end"
			font-weight=""
			font-style=""
			font-size=""
			fill="black"
            fill-opacity="1.000000"
            stroke="black"
            stroke-opacity="1.000000"
            stroke-width="1.000000"
            stroke-dasharray=""
            transform="">
		<tspan xml:space="preserve"> LEFT_OR_TOP </tspan>
	</text>
	<text xml:space="preserve"
			x="1512.000205" 
			y="236.904776" 
			text-anchor="start"
			font-weight=""
			font-style=""
			font-size="16"
			fill="black"
            fill-opacity="1.000000"
            stroke="black"
            stroke-opacity="1.000000"
            stroke-width="1.000000"
            stroke-dasharray=""
            transform="">
		<tspan xml:space="preserve"> RIGHT_OR_BOTTOM </tspan>
	</text>
	<line x1="1512.000205" y1="323.005197756364" x2="1512.000205" y2="323.005197756364"
			fill=""
            fill-opacity="0.000000"
            stroke="black"
            stroke-opacity="1.000000"
            stroke-width="1.000000"
            stroke-dasharray=""
            transform="" />
	<path d="M 1512.000205 323.005198 A 20.000000 20.000000 0 0 0 1512.000205 323.005198"
			fill=""
            fill-opacity="0.000000"
            stroke="black"
            stroke-opacity="1.000000"
            stroke-width="1.000000"
            stroke-dasharray=""
            transform="" />
	<line x1="1512.000205" y1="323.005197756364" x2="1512.000205" y2="385.256327"
			fill=""
            fill-opacity="0.000000"
            stroke="black"
            stroke-opacity="1.000000"
            stroke-width="1.000000"
            stroke-dasharray=""
            transform="" />
	<path d="M 1512.353758 385.609880 L 1497.000205 370.256327 M 1511.646652 385.609880 L 1527.000205 370.256327"
			fill=""
            fill-opacity="0.000000"
            stroke="black"
            stroke-opacity="1.000000"
            stroke-width="1.000000"
            stroke-dasharray=""
            transform="" />
	<text xml:space="preserve"
			x="1512.000205" 
			y="362.656327" 
			text-anchor="end"
			font-weight=""
			font-style=""
			font-size=""
			fill="black"
            fill-opacity="1.000000"
            stroke="black"
            stroke-opacity="1.000000"
            stroke-width="1.000000"
            stroke-dasharray=""
            transform="">
		<tspan xml:space="preserve"> LEFT_OR_TOP </tspan>
	</text>
	<text xml:space="preserve"
			x="1512.000205" 
			y="362.656327" 
			text-anchor="start"
			font-weight=""
			font-style=""
			font-size="16"
			fill="black"
            fill-opacity="1.000000"
            stroke="black"
            stroke-opacity="1.000000"
            stroke-width="1.000000"
            stroke-dasharray=""
            transform="">
		<tspan xml:space="preserve"> RIGHT_OR_BOTTOM </tspan>
	</text>
	<line x1="1705.769231" y1="634.004999" x2="1916.0003530000001" y2="634.004999"
			fill=""
            fill-opacity="0.000000"
            stroke="black"
            stroke-opacity="1.000000"
            stroke-width="1.000000"
            stroke-dasharray=""
            transform="" />
	<path d="M 1705.415678 634.358552 L 1720.769231 619.004999 M 1705.415678 633.651446 L 1720.769231 649.004999"
			fill=""
            fill-opacity="0.000000"
            stroke="black"
            stroke-opacity="1.000000"
            stroke-width="1.000000"
            stroke-dasharray=""
            transform="" />
	<path d="M 1916.000353 634.004999 A 40.000000 40.000000 0 0 0 1956.000353 594.004999"
			fill=""
            fill-opacity="0.000000"
            stroke="black"
            stroke-opacity="1.000000"
            stroke-width="1.000000"
            stroke-dasharray=""
            transform="" />
	<text xml:space="preserve"
			x="1705.769231" 
			y="611.404999" 
			text-anchor="start"
			font-weight=""
			font-style=""
			font-size=""
			fill="black"
            fill-opacity="1.000000"
            stroke="black"
            stroke-opacity="1.000000"
            stroke-width="1.000000"
            stroke-dasharray=""
            transform="">
		<tspan xml:space="preserve"> LEFT_OR_TOP </tspan>
	</text>
	<text xml:space="preserve"
			x="1705.769231" 
			y="668.004999" 
			text-anchor="start"
			font-weight=""
			font-style=""
			font-size="16"
			fill="black"
            fill-opacity="1.000000"
            stroke="black"
            stroke-opacity="1.000000"
            stroke-width="1.000000"
            stroke-dasharray=""
            transform="">
		<tspan xml:space="preserve"> RIGHT_OR_BOTTOM </tspan>
	</text>
	<text xml:space="preserve"
			x="1705.769231" 
			y="708.004999" 
			text-anchor="start"
			font-weight=""
			font-style=""
			font-size=""
			fill="red"
            fill-opacity="1.000000"
            stroke="red"
            stroke-opacity="1.000000"
            stroke-width="1.000000"
            stroke-dasharray=""
            transform="">
		<tspan xml:space="preserve"> AA_RIGHT_OR_BOTTOM_BELOW </tspan>
	</text>
	<text xml:space="preserve"
			x="1705.769231" 
			y="571.404999" 
			text-anchor="start"
			font-weight=""
			font-style=""
			font-size=""
			fill="blue"
            fill-opacity="1.000000"
            stroke="blue"
            stroke-opacity="1.000000"
            stroke-width="1.000000"
            stroke-dasharray=""
            transform="">
		<tspan xml:space="preserve"> LEFT_OR_TOP_ABOVE </tspan>
	</text>
	<line x1="1956.0003530000001" y1="594.004999" x2="1956.0003530000001" y2="202.904776"
			fill=""
            fill-opacity="0.000000"
            stroke="black"
            stroke-opacity="1.000000"
            stroke-width="1.000000"
            stroke-dasharray=""
            transform="" />
	<path d="M 1955.646800 202.551223 L 1971.000353 217.904776 M 1956.353906 202.551223 L 1941.000353 217.904776"
			fill=""
            fill-opacity="0.000000"
            stroke="black"
            stroke-opacity="1.000000"
            stroke-width="1.000000"
            stroke-dasharray=""
            transform="" />
	<text xml:space="preserve"
			x="1956.0003530000001" 
			y="236.904776" 
			text-anchor="end"
			font-weight=""
			font-style=""
			font-size=""
			fill="black"
            fill-opacity="1.000000"
            stroke="black"
            stroke-opacity="1.000000"
            stroke-width="1.000000"
            stroke-dasharray=""
            transform="">
		<tspan xml:space="preserve"> LEFT_OR_TOP </tspan>
	</text>
	<text xml:space="preserve"
			x="1956.0003530000001" 
			y="236.904776" 
			text-anchor="start"
			font-weight=""
			font-style=""
			font-size="16"
			fill="black"
            fill-opacity="1.000000"
            stroke="black"
            stroke-opacity="1.000000"
            stroke-width="1.000000"
            stroke-dasharray=""
            transform="">
		<tspan xml:space="preserve"> RIGHT_OR_BOTTOM </tspan>
	</text>
	<text xml:space="preserve"
			x="1956.0003530000001" 
			y="276.90477599999997" 
			text-anchor="start"
			font-weight=""
			font-style=""
			font-size=""
			fill="red"
            fill-opacity="1.000000"
            stroke="red"
            stroke-opacity="1.000000"
            stroke-width="1.000000"
            stroke-dasharray=""
            transform="">
		<tspan xml:space="preserve"> AA_RIGHT_OR_BOTTOM_BELOW </tspan>
	</text>
	<text xml:space="preserve"
			x="1956.0003530000001" 
			y="196.904776" 
			text-anchor="end"
			font-weight=""
			font-style=""
			font-size=""
			fill="blue"
            fill-opacity="1.000000"
            stroke="blue"
            stroke-opacity="1.000000"
            stroke-width="1.000000"
            stroke-dasharray=""
            transform="">
		<tspan xml:space="preserve"> LEFT_OR_TOP_ABOVE </tspan>
	</text>
	<line x1="1180.333333" y1="155.257445002864" x2="882.9997010000001" y2="155.257445002864"
			fill=""
            fill-opacity="0.000000"
            stroke="black"
            stroke-opacity="1.000000"
            stroke-width="1.000000"
            stroke-dasharray=""
            transform="" />
	<path d="M 1180.686886 155.610998 L 1165.333333 140.257445 M 1180.686886 154.903892 L 1165.333333 170.257445"
			fill=""
            fill-opacity="0.000000"
            stroke="black"
            stroke-opacity="1.000000"
            stroke-width="1.000000"
            stroke-dasharray=""
            transform="" />
	<path d="M 882.999701 155.257445 A 30.000000 30.000000 0 0 0 852.999701 185.257445"
			fill=""
            fill-opacity="0.000000"
            stroke="black"
            stroke-opacity="1.000000"
            stroke-width="1.000000"
            stroke-dasharray=""
            transform="" />
	<text xml:space="preserve"
			x="1180.333333" 
			y="132.657445002864" 
			text-anchor="end"
			font-weight=""
			font-style=""
			font-size=""
			fill="black"
            fill-opacity="1.000000"
            stroke="black"
            stroke-opacity="1.000000"
            stroke-width="1.000000"
            stroke-dasharray=""
            transform="">
		<tspan xml:space="preserve"> LEFT_OR_TOP </tspan>
	</text>
	<text xml:space="preserve"
			x="1180.333333" 
			y="189.257445002864" 
			text-anchor="end"
			font-weight=""
			font-style=""
			font-size="16"
			fill="black"
            fill-opacity="1.000000"
            stroke="black"
            stroke-opacity="1.000000"
            stroke-width="1.000000"
            stroke-dasharray=""
            transform="">
		<tspan xml:space="preserve"> RIGHT_OR_BOTTOM </tspan>
	</text>
	<line x1="852.9997010000001" y1="185.257445002864" x2="852.9997010000001" y2="512.005127"
			fill=""
            fill-opacity="0.000000"
            stroke="black"
            stroke-opacity="1.000000"
            stroke-width="1.000000"
            stroke-dasharray=""
            transform="" />
	<path d="M 852.999701 512.005127 A 30.000000 30.000000 0 0 0 882.999701 542.005127"
			fill=""
            fill-opacity="0.000000"
            stroke="black"
            stroke-opacity="1.000000"
            stroke-width="1.000000"
            stroke-dasharray=""
            transform="" />
	<line x1="882.9997010000001" y1="542.005127" x2="1081.769231" y2="542.005127"
			fill=""
            fill-opacity="0.000000"
            stroke="black"
            stroke-opacity="1.000000"
            stroke-width="1.000000"
            stroke-dasharray=""
            transform="" />
	<path d="M 1082.122784 542.358680 L 1066.769231 527.005127 M 1082.122784 541.651574 L 1066.769231 557.005127"
			fill=""
            fill-opacity="0.000000"
            stroke="black"
            stroke-opacity="1.000000"
            stroke-width="1.000000"
            stroke-dasharray=""
            transform="" />
	<text xml:space="preserve"
			x="1081.769231" 
			y="519.405127" 
			text-anchor="end"
			font-weight=""
			font-style=""
			font-size=""
			fill="black"
            fill-opacity="1.000000"
            stroke="black"
            stroke-opacity="1.000000"
            stroke-width="1.000000"
            stroke-dasharray=""
            transform="">
		<tspan xml:space="preserve"> LEFT_OR_TOP </tspan>
	</text>
	<text xml:space="preserve"
			x="1081.769231" 
			y="576.005127" 
			text-anchor="end"
			font-weight=""
			font-style=""
			font-size="16"
			fill="black"
            fill-opacity="1.000000"
            stroke="black"
            stroke-opacity="1.000000"
            stroke-width="1.000000"
            stroke-dasharray=""
            transform="">
		<tspan xml:space="preserve"> RIGHT_OR_BOTTOM </tspan>
	</text>
  <rect x="522.999969" y="44" width="237" height="237" rx="3" ry="3"
			fill="lightcyan"
            fill-opacity="100.000000"
            stroke="darkcyan"
            stroke-opacity="1.000000"
            stroke-width="2.000000"
            stroke-dasharray=""
            transform="" />
  <rect
			x="641.499969" 
			y="84"
			width="100"
			height="30"
			fill="lightgrey"
            fill-opacity="40.000000"
            stroke="bisque"
            stroke-opacity="1.000000"
            stroke-width="1.000000"
            stroke-dasharray=""
            transform="" >
</rect>
<path
			d="M532-131q-6 5-12.5 8t-14.5 3q-8 0-16-3.5t-14-9.5q-41-44-60.5-90T395-320q0-37 11-78t38-106q23-57 32-87.5t9-56.5q0-34-15-63.5T423-771q-6-6-9.5-14t-3.5-16q0-8 3-14.5t8-12.5q6-6 13.5-9t15.5-3q8 0 15 3t13 8q44 41 65.5 86t21.5 95q0 35-10.5 73.5T518-474q-25 60-34 92t-9 61q0 35 14.5 67.5T534-188q5 6 8 13t3 15q0 8-3 15.5T532-131Zm195 0q-6 5-12.5 8t-14.5 3q-8 0-16-3.5t-14-9.5q-41-44-60.5-89.5T590-319q0-37 11-79t38-106q23-57 32-87t9-56q0-34-15-64.5T618-771q-6-6-9-13.5t-3-15.5q0-8 2.5-14.5T616-827q6-6 14-9.5t16-3.5q8 0 14.5 3t12.5 8q44 41 65.5 86t21.5 95q0 35-10.5 73.5T713-473q-25 60-34 92t-9 60q0 35 15 68.5t45 65.5q5 6 7.5 13t2.5 14q0 8-3 16t-10 13Zm-390 0q-6 5-12.5 8t-14.5 3q-8 0-16-3.5t-14-9.5q-41-44-60.5-89.5T200-319q0-37 11-79t38-106q23-57 32-87t9-56q0-34-15-64.5T228-771q-7-6-10-13.5t-3-15.5q0-8 3-15t8-13q6-6 13.5-9t15.5-3q8 0 15 3t13 8q44 41 65.5 85.5T370-648q0 35-10 73.5T324-474q-25 60-34 92t-9 61q0 35 14.5 68.5T340-187q5 6 7.5 13t2.5 14q0 8-3 16t-10 13Z"
			fill="black"
            fill-opacity="0.500000"
            stroke="black"
            stroke-opacity="1.000000"
            stroke-width="1.000000"
            stroke-dasharray=""
            transform="translate(522.999969 281) scale(0.246875 0.246875)" >
</path>
</svg>
