
<svg xmlns="http://www.w3.org/2000/svg" width="100%" height="100%" viewBox="-10 -10 1988.833333 1066.499985">
<style>text { font-family: Roboto, Arial, sans-serif !important; }</style>  <rect x="333" y="616" width="584" height="200.999985" rx="5" ry="5"
			fill="bisque"
            fill-opacity="50.000000"
            stroke="lightcoral"
            stroke-opacity="1.000000"
            stroke-width="3.000000"
            stroke-dasharray=""
            transform="" />
  <text
			x="625" 
			y="636"
			writing-mode=""
			dominant-baseline="central"
			text-anchor="middle"
			font-weight="100"
			font-style=""
			font-size=""
			fill="black"
            fill-opacity="100.000000"
            stroke="black"
            stroke-opacity="1.000000"
            stroke-width="1.000000"
            stroke-dasharray=""
            transform="" ><tspan x="625" text-anchor="middle">This is an example of a note that</tspan><tspan x="625" dy="1.2em" text-anchor="middle">could be displayed on a diagram.</tspan><tspan x="625" dy="1.2em" text-anchor="middle"> </tspan><tspan x="625" dy="1.2em" text-anchor="middle">It could explain one aspect of the model</tspan><tspan x="625" dy="1.2em" text-anchor="middle">for instance, describing relations between structs</tspan><tspan x="625" dy="1.2em" text-anchor="middle"> </tspan><tspan x="625" dy="1.2em" text-anchor="middle">The text of a UML note refers a comment with the GONGNOTE keyword which is</tspan><tspan x="625" dy="1.2em" text-anchor="middle">a special case of go Note convention. See example</tspan><tspan x="625" dy="1.2em" text-anchor="middle">for details in the go code of the models.</tspan><tspan x="625" dy="1.2em" text-anchor="middle"> </tspan></text>
  <rect
			x="333" 
			y="616"
			width="100"
			height="50"
			fill="lightblue"
            fill-opacity="100.000000"
            stroke=""
            stroke-opacity="1.000000"
            stroke-width="0.000000"
            stroke-dasharray=""
            transform="" >
</rect>
<path
			d="M532-131q-6 5-12.5 8t-14.5 3q-8 0-16-3.5t-14-9.5q-41-44-60.5-90T395-320q0-37 11-78t38-106q23-57 32-87.5t9-56.5q0-34-15-63.5T423-771q-6-6-9.5-14t-3.5-16q0-8 3-14.5t8-12.5q6-6 13.5-9t15.5-3q8 0 15 3t13 8q44 41 65.5 86t21.5 95q0 35-10.5 73.5T518-474q-25 60-34 92t-9 61q0 35 14.5 67.5T534-188q5 6 8 13t3 15q0 8-3 15.5T532-131Zm195 0q-6 5-12.5 8t-14.5 3q-8 0-16-3.5t-14-9.5q-41-44-60.5-89.5T590-319q0-37 11-79t38-106q23-57 32-87t9-56q0-34-15-64.5T618-771q-6-6-9-13.5t-3-15.5q0-8 2.5-14.5T616-827q6-6 14-9.5t16-3.5q8 0 14.5 3t12.5 8q44 41 65.5 86t21.5 95q0 35-10.5 73.5T713-473q-25 60-34 92t-9 60q0 35 15 68.5t45 65.5q5 6 7.5 13t2.5 14q0 8-3 16t-10 13Zm-390 0q-6 5-12.5 8t-14.5 3q-8 0-16-3.5t-14-9.5q-41-44-60.5-89.5T200-319q0-37 11-79t38-106q23-57 32-87t9-56q0-34-15-64.5T228-771q-7-6-10-13.5t-3-15.5q0-8 3-15t8-13q6-6 13.5-9t15.5-3q8 0 15 3t13 8q44 41 65.5 85.5T370-648q0 35-10 73.5T324-474q-25 60-34 92t-9 61q0 35 14.5 68.5T340-187q5 6 7.5 13t2.5 14q0 8-3 16t-10 13Z"
			fill=""
            fill-opacity="0.000000"
            stroke="blue"
            stroke-opacity="1.000000"
            stroke-width="2.000000"
            stroke-dasharray=""
            transform="translate(333 816.999985) scale(0.2 0.2)" >
</path>
<path
			d="M532-131q-6 5-12.5 8t-14.5 3q-8 0-16-3.5t-14-9.5q-41-44-60.5-90T395-320q0-37 11-78t38-106q23-57 32-87.5t9-56.5q0-34-15-63.5T423-771q-6-6-9.5-14t-3.5-16q0-8 3-14.5t8-12.5q6-6 13.5-9t15.5-3q8 0 15 3t13 8q44 41 65.5 86t21.5 95q0 35-10.5 73.5T518-474q-25 60-34 92t-9 61q0 35 14.5 67.5T534-188q5 6 8 13t3 15q0 8-3 15.5T532-131Zm195 0q-6 5-12.5 8t-14.5 3q-8 0-16-3.5t-14-9.5q-41-44-60.5-89.5T590-319q0-37 11-79t38-106q23-57 32-87t9-56q0-34-15-64.5T618-771q-6-6-9-13.5t-3-15.5q0-8 2.5-14.5T616-827q6-6 14-9.5t16-3.5q8 0 14.5 3t12.5 8q44 41 65.5 86t21.5 95q0 35-10.5 73.5T713-473q-25 60-34 92t-9 60q0 35 15 68.5t45 65.5q5 6 7.5 13t2.5 14q0 8-3 16t-10 13Zm-390 0q-6 5-12.5 8t-14.5 3q-8 0-16-3.5t-14-9.5q-41-44-60.5-89.5T200-319q0-37 11-79t38-106q23-57 32-87t9-56q0-34-15-64.5T228-771q-7-6-10-13.5t-3-15.5q0-8 3-15t8-13q6-6 13.5-9t15.5-3q8 0 15 3t13 8q44 41 65.5 85.5T370-648q0 35-10 73.5T324-474q-25 60-34 92t-9 61q0 35 14.5 68.5T340-187q5 6 7.5 13t2.5 14q0 8-3 16t-10 13Z"
			fill=""
            fill-opacity="0.000000"
            stroke="blue"
            stroke-opacity="1.000000"
            stroke-width="2.000000"
            stroke-dasharray=""
            transform="translate(333 816.999985) scale(0.2 0.2)" >
</path>
	<line x1="500.999969" y1="90.499992" x2="222.999961" y2="90.499992"
			fill=""
            fill-opacity="0.000000"
            stroke="red"
            stroke-opacity="0.700000"
            stroke-width="5.000000"
            stroke-dasharray=""
            transform="" />
	<path d="M 502.767736 92.267759 L 490.999969 80.499992 M 502.767736 88.732225 L 490.999969 100.499992"
			fill=""
            fill-opacity="0.000000"
            stroke="red"
            stroke-opacity="0.700000"
            stroke-width="5.000000"
            stroke-dasharray=""
            transform="" />
	<path d="M 222.999961 90.499992 A 20.000000 20.000000 0 0 0 202.999961 110.499992"
			fill=""
            fill-opacity="0.000000"
            stroke="red"
            stroke-opacity="0.700000"
            stroke-width="5.000000"
            stroke-dasharray=""
            transform="" />
	<text xml:space="preserve"
			x="500.999969" 
			y="72.899992" 
			text-anchor="end"
			font-weight="normal"
			font-style=""
			font-size=""
			fill="black"
            fill-opacity="0.000000"
            stroke="black"
            stroke-opacity="1.000000"
            stroke-width="1.000000"
            stroke-dasharray=""
            transform="">
		<tspan xml:space="preserve"> Start Left/Top </tspan>
	</text>
	<text xml:space="preserve"
			x="500.999969" 
			y="119.499992" 
			text-anchor="end"
			font-weight="normal"
			font-style=""
			font-size=""
			fill="black"
            fill-opacity="1.000000"
            stroke="black"
            stroke-opacity="1.000000"
            stroke-width="1.000000"
            stroke-dasharray=""
            transform="">
		<tspan xml:space="preserve"> Start Right/Bottom </tspan>
	</text>
	<line x1="202.999961" y1="110.499992" x2="202.999961" y2="405"
			fill=""
            fill-opacity="0.000000"
            stroke="red"
            stroke-opacity="0.700000"
            stroke-width="5.000000"
            stroke-dasharray=""
            transform="" />
	<path d="M 202.999961 405.000000 A 20.000000 20.000000 0 0 0 222.999961 425.000000"
			fill=""
            fill-opacity="0.000000"
            stroke="red"
            stroke-opacity="0.700000"
            stroke-width="5.000000"
            stroke-dasharray=""
            transform="" />
	<line x1="222.999961" y1="425" x2="432" y2="425"
			fill=""
            fill-opacity="0.000000"
            stroke="red"
            stroke-opacity="0.700000"
            stroke-width="5.000000"
            stroke-dasharray=""
            transform="" />
	<path d="M 433.767767 426.767767 L 422.000000 415.000000 M 433.767767 423.232233 L 422.000000 435.000000"
			fill=""
            fill-opacity="0.000000"
            stroke="red"
            stroke-opacity="0.700000"
            stroke-width="5.000000"
            stroke-dasharray=""
            transform="" />
	<text xml:space="preserve"
			x="432" 
			y="494" 
			text-anchor="end"
			font-weight="normal"
			font-style=""
			font-size=""
			fill="black"
            fill-opacity="1.000000"
            stroke="black"
            stroke-opacity="1.000000"
            stroke-width="1.000000"
            stroke-dasharray=""
            transform="">
		<tspan xml:space="preserve"> End Right/Bottom </tspan>
	</text>
	<text xml:space="preserve"
			x="392" 
			y="407.4" 
			text-anchor="end"
			font-weight="normal"
			font-style=""
			font-size=""
			fill="blue"
            fill-opacity="0.000000"
            stroke="blue"
            stroke-opacity="1.000000"
            stroke-width="1.000000"
            stroke-dasharray=""
            transform="">
		<tspan xml:space="preserve"> End Left/Top </tspan>
	</text>
	<line x1="500.999969" y1="208.431192" x2="139.99997500000003" y2="208.431192"
			fill=""
            fill-opacity="0.000000"
            stroke="green"
            stroke-opacity="1.000000"
            stroke-width="4.000000"
            stroke-dasharray=""
            transform="" />
	<path d="M 139.999975 208.431192 A 8.000000 8.000000 0 0 0 131.999975 216.431192"
			fill=""
            fill-opacity="0.000000"
            stroke="green"
            stroke-opacity="1.000000"
            stroke-width="4.000000"
            stroke-dasharray=""
            transform="" />
	<text xml:space="preserve"
			x="371.99993800000004" 
			y="245.44370400000003" 
			text-anchor="end"
			font-weight="light"
			font-style=""
			font-size=""
			fill="cyan"
            fill-opacity="100.000000"
            stroke="cyan"
            stroke-opacity="1.000000"
            stroke-width="1.000000"
            stroke-dasharray=""
            transform="">
		<tspan xml:space="preserve"> Start Anchored 1 </tspan>
	</text>
	<line x1="131.99997500000003" y1="216.431192" x2="131.99997500000003" y2="740.589439105265"
			fill=""
            fill-opacity="0.000000"
            stroke="green"
            stroke-opacity="1.000000"
            stroke-width="4.000000"
            stroke-dasharray=""
            transform="" />
	<path d="M 131.999975 740.589439 A 8.000000 8.000000 0 0 0 139.999975 748.589439"
			fill=""
            fill-opacity="0.000000"
            stroke="green"
            stroke-opacity="1.000000"
            stroke-width="4.000000"
            stroke-dasharray=""
            transform="" />
	<line x1="139.99997500000003" y1="748.589439105265" x2="333" y2="748.589439105265"
			fill=""
            fill-opacity="0.000000"
            stroke="green"
            stroke-opacity="1.000000"
            stroke-width="4.000000"
            stroke-dasharray=""
            transform="" />
	<path d="M 334.414214 750.003653 L 323.000000 738.589439 M 334.414214 747.175226 L 323.000000 758.589439"
			fill=""
            fill-opacity="0.000000"
            stroke="green"
            stroke-opacity="1.000000"
            stroke-width="4.000000"
            stroke-dasharray=""
            transform="" />
	<line x1="600.999986" y1="270" x2="600.999986" y2="290.00206699999995"
			fill=""
            fill-opacity="0.000000"
            stroke="black"
            stroke-opacity="1.000000"
            stroke-width="2.000000"
            stroke-dasharray=""
            transform="" />
	<path d="M 600.292879 269.292893 L 611.999986 281.000000 M 601.707093 269.292893 L 589.999986 281.000000"
			fill=""
            fill-opacity="0.000000"
            stroke="black"
            stroke-opacity="1.000000"
            stroke-width="2.000000"
            stroke-dasharray=""
            transform="" />
	<path d="M 600.999986 290.002067 A 10.000000 10.000000 0 0 1 590.999986 300.002067"
			fill=""
            fill-opacity="0.000000"
            stroke="black"
            stroke-opacity="1.000000"
            stroke-width="2.000000"
            stroke-dasharray=""
            transform="" />
	<line x1="590.999986" y1="300.00206699999995" x2="557" y2="300.00206699999995"
			fill=""
            fill-opacity="0.000000"
            stroke="black"
            stroke-opacity="1.000000"
            stroke-width="2.000000"
            stroke-dasharray=""
            transform="" />
	<path d="M 557.000000 300.002067 A 10.000000 10.000000 0 0 0 547.000000 310.002067"
			fill=""
            fill-opacity="0.000000"
            stroke="black"
            stroke-opacity="1.000000"
            stroke-width="2.000000"
            stroke-dasharray=""
            transform="" />
	<line x1="547" y1="310.00206699999995" x2="547" y2="425"
			fill=""
            fill-opacity="0.000000"
            stroke="black"
            stroke-opacity="1.000000"
            stroke-width="2.000000"
            stroke-dasharray=""
            transform="" />
	<path d="M 547.707107 425.707107 L 536.000000 414.000000 M 546.292893 425.707107 L 558.000000 414.000000"
			fill=""
            fill-opacity="0.000000"
            stroke="black"
            stroke-opacity="1.000000"
            stroke-width="2.000000"
            stroke-dasharray=""
            transform="" />
  <rect x="432" y="425" width="200" height="132" rx="3" ry="3"
			fill="lavender"
            fill-opacity="50.000000"
            stroke="turquoise"
            stroke-opacity="1.000000"
            stroke-width="1.000000"
            stroke-dasharray=""
            transform="" />
  <rect x="1125.333333" y="62.333332" width="853" height="125.571444" rx="20" ry="20"
			fill=""
            fill-opacity="0.000000"
            stroke="black"
            stroke-opacity="1.000000"
            stroke-width="1.000000"
            stroke-dasharray=""
            transform="" />
  <text
			x="1551.833333" 
			y="125.119054"
			writing-mode=""
			dominant-baseline="central"
			text-anchor="middle"
			font-weight=""
			font-style=""
			font-size="27px"
			fill="black"
            fill-opacity="1.000000"
            stroke="black"
            stroke-opacity="1.000000"
            stroke-width="1.000000"
            stroke-dasharray=""
            transform="" ><tspan x="1551.833333" text-anchor="middle">Start</tspan></text>
  <rect x="1192.769231" y="385.256327" width="430" height="384" rx="20" ry="20"
			fill=""
            fill-opacity="0.000000"
            stroke="black"
            stroke-opacity="1.000000"
            stroke-width="1.000000"
            stroke-dasharray=""
            transform="" />
  <text
			x="1407.769231" 
			y="577.256327"
			writing-mode=""
			dominant-baseline=""
			text-anchor="middle"
			font-weight=""
			font-style=""
			font-size="27px"
			fill="black"
            fill-opacity="1.000000"
            stroke="black"
            stroke-opacity="1.000000"
            stroke-width="1.000000"
            stroke-dasharray=""
            transform="" ><tspan x="1407.769231" text-anchor="middle">End</tspan></text>
	<line x1="1457.000205" y1="187.904776" x2="1457.000205" y2="308.005197756364"
			fill=""
            fill-opacity="0.000000"
            stroke="black"
            stroke-opacity="1.000000"
            stroke-width="1.000000"
            stroke-dasharray=""
            transform="" />
	<path d="M 1456.646652 187.551223 L 1472.000205 202.904776 M 1457.353758 187.551223 L 1442.000205 202.904776"
			fill=""
            fill-opacity="0.000000"
            stroke="black"
            stroke-opacity="1.000000"
            stroke-width="1.000000"
            stroke-dasharray=""
            transform="" />
	<path d="M 1457.000205 308.005198 A 20.000000 20.000000 0 0 1 1457.000205 308.005198"
			fill=""
            fill-opacity="0.000000"
            stroke="black"
            stroke-opacity="1.000000"
            stroke-width="1.000000"
            stroke-dasharray=""
            transform="" />
	<text xml:space="preserve"
			x="1457.000205" 
			y="221.904776" 
			text-anchor="end"
			font-weight=""
			font-style=""
			font-size=""
			fill="black"
            fill-opacity="1.000000"
            stroke="black"
            stroke-opacity="1.000000"
            stroke-width="1.000000"
            stroke-dasharray=""
            transform="">
		<tspan xml:space="preserve"> LEFT_OR_TOP </tspan>
	</text>
	<text xml:space="preserve"
			x="1457.000205" 
			y="221.904776" 
			text-anchor="start"
			font-weight=""
			font-style=""
			font-size="16"
			fill="black"
            fill-opacity="1.000000"
            stroke="black"
            stroke-opacity="1.000000"
            stroke-width="1.000000"
            stroke-dasharray=""
            transform="">
		<tspan xml:space="preserve"> RIGHT_OR_BOTTOM </tspan>
	</text>
	<line x1="1457.000205" y1="308.005197756364" x2="1457.000205" y2="308.005197756364"
			fill=""
            fill-opacity="0.000000"
            stroke="black"
            stroke-opacity="1.000000"
            stroke-width="1.000000"
            stroke-dasharray=""
            transform="" />
	<path d="M 1457.000205 308.005198 A 20.000000 20.000000 0 0 0 1457.000205 308.005198"
			fill=""
            fill-opacity="0.000000"
            stroke="black"
            stroke-opacity="1.000000"
            stroke-width="1.000000"
            stroke-dasharray=""
            transform="" />
	<line x1="1457.000205" y1="308.005197756364" x2="1457.000205" y2="385.256327"
			fill=""
            fill-opacity="0.000000"
            stroke="black"
            stroke-opacity="1.000000"
            stroke-width="1.000000"
            stroke-dasharray=""
            transform="" />
	<path d="M 1457.353758 385.609880 L 1442.000205 370.256327 M 1456.646652 385.609880 L 1472.000205 370.256327"
			fill=""
            fill-opacity="0.000000"
            stroke="black"
            stroke-opacity="1.000000"
            stroke-width="1.000000"
            stroke-dasharray=""
            transform="" />
	<text xml:space="preserve"
			x="1457.000205" 
			y="362.656327" 
			text-anchor="end"
			font-weight=""
			font-style=""
			font-size=""
			fill="black"
            fill-opacity="1.000000"
            stroke="black"
            stroke-opacity="1.000000"
            stroke-width="1.000000"
            stroke-dasharray=""
            transform="">
		<tspan xml:space="preserve"> LEFT_OR_TOP </tspan>
	</text>
	<text xml:space="preserve"
			x="1457.000205" 
			y="362.656327" 
			text-anchor="start"
			font-weight=""
			font-style=""
			font-size="16"
			fill="black"
            fill-opacity="1.000000"
            stroke="black"
            stroke-opacity="1.000000"
            stroke-width="1.000000"
            stroke-dasharray=""
            transform="">
		<tspan xml:space="preserve"> RIGHT_OR_BOTTOM </tspan>
	</text>
	<line x1="1622.769231" y1="634.004999" x2="1861.0003530000001" y2="634.004999"
			fill=""
            fill-opacity="0.000000"
            stroke="black"
            stroke-opacity="1.000000"
            stroke-width="1.000000"
            stroke-dasharray=""
            transform="" />
	<path d="M 1622.415678 634.358552 L 1637.769231 619.004999 M 1622.415678 633.651446 L 1637.769231 649.004999"
			fill=""
            fill-opacity="0.000000"
            stroke="black"
            stroke-opacity="1.000000"
            stroke-width="1.000000"
            stroke-dasharray=""
            transform="" />
	<path d="M 1861.000353 634.004999 A 40.000000 40.000000 0 0 0 1901.000353 594.004999"
			fill=""
            fill-opacity="0.000000"
            stroke="black"
            stroke-opacity="1.000000"
            stroke-width="1.000000"
            stroke-dasharray=""
            transform="" />
	<text xml:space="preserve"
			x="1622.769231" 
			y="611.404999" 
			text-anchor="start"
			font-weight=""
			font-style=""
			font-size=""
			fill="black"
            fill-opacity="1.000000"
            stroke="black"
            stroke-opacity="1.000000"
            stroke-width="1.000000"
            stroke-dasharray=""
            transform="">
		<tspan xml:space="preserve"> LEFT_OR_TOP </tspan>
	</text>
	<text xml:space="preserve"
			x="1622.769231" 
			y="668.004999" 
			text-anchor="start"
			font-weight=""
			font-style=""
			font-size="16"
			fill="black"
            fill-opacity="1.000000"
            stroke="black"
            stroke-opacity="1.000000"
            stroke-width="1.000000"
            stroke-dasharray=""
            transform="">
		<tspan xml:space="preserve"> RIGHT_OR_BOTTOM </tspan>
	</text>
	<text xml:space="preserve"
			x="1622.769231" 
			y="708.004999" 
			text-anchor="start"
			font-weight=""
			font-style=""
			font-size=""
			fill="red"
            fill-opacity="1.000000"
            stroke="red"
            stroke-opacity="1.000000"
            stroke-width="1.000000"
            stroke-dasharray=""
            transform="">
		<tspan xml:space="preserve"> AA_RIGHT_OR_BOTTOM_BELOW </tspan>
	</text>
	<text xml:space="preserve"
			x="1622.769231" 
			y="571.404999" 
			text-anchor="start"
			font-weight=""
			font-style=""
			font-size=""
			fill="blue"
            fill-opacity="1.000000"
            stroke="blue"
            stroke-opacity="1.000000"
            stroke-width="1.000000"
            stroke-dasharray=""
            transform="">
		<tspan xml:space="preserve"> LEFT_OR_TOP_ABOVE </tspan>
	</text>
	<line x1="1901.0003530000001" y1="594.004999" x2="1901.0003530000001" y2="187.904776"
			fill=""
            fill-opacity="0.000000"
            stroke="black"
            stroke-opacity="1.000000"
            stroke-width="1.000000"
            stroke-dasharray=""
            transform="" />
	<path d="M 1900.646800 187.551223 L 1916.000353 202.904776 M 1901.353906 187.551223 L 1886.000353 202.904776"
			fill=""
            fill-opacity="0.000000"
            stroke="black"
            stroke-opacity="1.000000"
            stroke-width="1.000000"
            stroke-dasharray=""
            transform="" />
	<text xml:space="preserve"
			x="1901.0003530000001" 
			y="221.904776" 
			text-anchor="end"
			font-weight=""
			font-style=""
			font-size=""
			fill="black"
            fill-opacity="1.000000"
            stroke="black"
            stroke-opacity="1.000000"
            stroke-width="1.000000"
            stroke-dasharray=""
            transform="">
		<tspan xml:space="preserve"> LEFT_OR_TOP </tspan>
	</text>
	<text xml:space="preserve"
			x="1901.0003530000001" 
			y="221.904776" 
			text-anchor="start"
			font-weight=""
			font-style=""
			font-size="16"
			fill="black"
            fill-opacity="1.000000"
            stroke="black"
            stroke-opacity="1.000000"
            stroke-width="1.000000"
            stroke-dasharray=""
            transform="">
		<tspan xml:space="preserve"> RIGHT_OR_BOTTOM </tspan>
	</text>
	<text xml:space="preserve"
			x="1901.0003530000001" 
			y="261.90477599999997" 
			text-anchor="start"
			font-weight=""
			font-style=""
			font-size=""
			fill="red"
            fill-opacity="1.000000"
            stroke="red"
            stroke-opacity="1.000000"
            stroke-width="1.000000"
            stroke-dasharray=""
            transform="">
		<tspan xml:space="preserve"> AA_RIGHT_OR_BOTTOM_BELOW </tspan>
	</text>
	<text xml:space="preserve"
			x="1901.0003530000001" 
			y="181.904776" 
			text-anchor="end"
			font-weight=""
			font-style=""
			font-size=""
			fill="blue"
            fill-opacity="1.000000"
            stroke="blue"
            stroke-opacity="1.000000"
            stroke-width="1.000000"
            stroke-dasharray=""
            transform="">
		<tspan xml:space="preserve"> LEFT_OR_TOP_ABOVE </tspan>
	</text>
	<line x1="1125.333333" y1="140.257445002864" x2="827.9997010000001" y2="140.257445002864"
			fill=""
            fill-opacity="0.000000"
            stroke="black"
            stroke-opacity="1.000000"
            stroke-width="1.000000"
            stroke-dasharray=""
            transform="" />
	<path d="M 1125.686886 140.610998 L 1110.333333 125.257445 M 1125.686886 139.903892 L 1110.333333 155.257445"
			fill=""
            fill-opacity="0.000000"
            stroke="black"
            stroke-opacity="1.000000"
            stroke-width="1.000000"
            stroke-dasharray=""
            transform="" />
	<path d="M 827.999701 140.257445 A 30.000000 30.000000 0 0 0 797.999701 170.257445"
			fill=""
            fill-opacity="0.000000"
            stroke="black"
            stroke-opacity="1.000000"
            stroke-width="1.000000"
            stroke-dasharray=""
            transform="" />
	<text xml:space="preserve"
			x="1125.333333" 
			y="117.657445002864" 
			text-anchor="end"
			font-weight=""
			font-style=""
			font-size=""
			fill="black"
            fill-opacity="1.000000"
            stroke="black"
            stroke-opacity="1.000000"
            stroke-width="1.000000"
            stroke-dasharray=""
            transform="">
		<tspan xml:space="preserve"> LEFT_OR_TOP </tspan>
	</text>
	<text xml:space="preserve"
			x="1125.333333" 
			y="174.257445002864" 
			text-anchor="end"
			font-weight=""
			font-style=""
			font-size="16"
			fill="black"
            fill-opacity="1.000000"
            stroke="black"
            stroke-opacity="1.000000"
            stroke-width="1.000000"
            stroke-dasharray=""
            transform="">
		<tspan xml:space="preserve"> RIGHT_OR_BOTTOM </tspan>
	</text>
	<line x1="797.9997010000001" y1="170.257445002864" x2="797.9997010000001" y2="512.005127"
			fill=""
            fill-opacity="0.000000"
            stroke="black"
            stroke-opacity="1.000000"
            stroke-width="1.000000"
            stroke-dasharray=""
            transform="" />
	<path d="M 797.999701 512.005127 A 30.000000 30.000000 0 0 0 827.999701 542.005127"
			fill=""
            fill-opacity="0.000000"
            stroke="black"
            stroke-opacity="1.000000"
            stroke-width="1.000000"
            stroke-dasharray=""
            transform="" />
	<line x1="827.9997010000001" y1="542.005127" x2="1192.769231" y2="542.005127"
			fill=""
            fill-opacity="0.000000"
            stroke="black"
            stroke-opacity="1.000000"
            stroke-width="1.000000"
            stroke-dasharray=""
            transform="" />
	<path d="M 1193.122784 542.358680 L 1177.769231 527.005127 M 1193.122784 541.651574 L 1177.769231 557.005127"
			fill=""
            fill-opacity="0.000000"
            stroke="black"
            stroke-opacity="1.000000"
            stroke-width="1.000000"
            stroke-dasharray=""
            transform="" />
	<text xml:space="preserve"
			x="1192.769231" 
			y="519.405127" 
			text-anchor="end"
			font-weight=""
			font-style=""
			font-size=""
			fill="black"
            fill-opacity="1.000000"
            stroke="black"
            stroke-opacity="1.000000"
            stroke-width="1.000000"
            stroke-dasharray=""
            transform="">
		<tspan xml:space="preserve"> LEFT_OR_TOP </tspan>
	</text>
	<text xml:space="preserve"
			x="1192.769231" 
			y="576.005127" 
			text-anchor="end"
			font-weight=""
			font-style=""
			font-size="16"
			fill="black"
            fill-opacity="1.000000"
            stroke="black"
            stroke-opacity="1.000000"
            stroke-width="1.000000"
            stroke-dasharray=""
            transform="">
		<tspan xml:space="preserve"> RIGHT_OR_BOTTOM </tspan>
	</text>
  <rect x="500.999969" y="33" width="237" height="237" rx="3" ry="3"
			fill="lightcyan"
            fill-opacity="50.000000"
            stroke="darkcyan"
            stroke-opacity="1.000000"
            stroke-width="2.000000"
            stroke-dasharray=""
            transform="" />
  <rect
			x="619.499969" 
			y="73"
			width="100"
			height="30"
			fill="lightgrey"
            fill-opacity="40.000000"
            stroke="bisque"
            stroke-opacity="1.000000"
            stroke-width="1.000000"
            stroke-dasharray=""
            transform="" >
</rect>
<path
			d="M532-131q-6 5-12.5 8t-14.5 3q-8 0-16-3.5t-14-9.5q-41-44-60.5-90T395-320q0-37 11-78t38-106q23-57 32-87.5t9-56.5q0-34-15-63.5T423-771q-6-6-9.5-14t-3.5-16q0-8 3-14.5t8-12.5q6-6 13.5-9t15.5-3q8 0 15 3t13 8q44 41 65.5 86t21.5 95q0 35-10.5 73.5T518-474q-25 60-34 92t-9 61q0 35 14.5 67.5T534-188q5 6 8 13t3 15q0 8-3 15.5T532-131Zm195 0q-6 5-12.5 8t-14.5 3q-8 0-16-3.5t-14-9.5q-41-44-60.5-89.5T590-319q0-37 11-79t38-106q23-57 32-87t9-56q0-34-15-64.5T618-771q-6-6-9-13.5t-3-15.5q0-8 2.5-14.5T616-827q6-6 14-9.5t16-3.5q8 0 14.5 3t12.5 8q44 41 65.5 86t21.5 95q0 35-10.5 73.5T713-473q-25 60-34 92t-9 60q0 35 15 68.5t45 65.5q5 6 7.5 13t2.5 14q0 8-3 16t-10 13Zm-390 0q-6 5-12.5 8t-14.5 3q-8 0-16-3.5t-14-9.5q-41-44-60.5-89.5T200-319q0-37 11-79t38-106q23-57 32-87t9-56q0-34-15-64.5T228-771q-7-6-10-13.5t-3-15.5q0-8 3-15t8-13q6-6 13.5-9t15.5-3q8 0 15 3t13 8q44 41 65.5 85.5T370-648q0 35-10 73.5T324-474q-25 60-34 92t-9 61q0 35 14.5 68.5T340-187q5 6 7.5 13t2.5 14q0 8-3 16t-10 13Z"
			fill="black"
            fill-opacity="0.500000"
            stroke="black"
            stroke-opacity="1.000000"
            stroke-width="1.000000"
            stroke-dasharray=""
            transform="translate(500.999969 270) scale(0.246875 0.246875)" >
</path>
</svg>
