<svg xmlns="http://www.w3.org/2000/svg">
  <defs>
    <marker id="arrowheadend" markerWidth="10" markerHeight="7" refX="0" refY="3.5" orient="auto" fill="black">
      <polygon points="0 0, 10 3.5, 0 7" />
    </marker>
    <marker id="arrowheadstart" markerWidth="10" markerHeight="7" refX="10" refY="3.5" orient="auto" fill="black">
      <polygon points="10 0, 0 3.5, 10 7" />
    </marker>
  </defs>
  <rect x="440" y="592" width="565" height="266.999985" rx="5" ry="5" fill="bisque" fill-opacity="50" stroke="lightcoral" stroke-width="3" />
  <path d="M 739.999969 95.847542 L 281.00002399999994 95.847542 L 261.00002399999994 115.847542 L 261.00002399999994 487.109332 L 281.00002399999994 507.109332 L 807 507.109332" fill="none" stroke="red" stroke-width="5" stroke-opacity="0.7" marker-start="url(#arrowheadstart)" marker-end="url(#arrowheadend)" />
  <line x1="374" y1="258" x2="555.999969" y2="523" fill="none" stroke="olivedrab" stroke-width="4" />
  <path d="M 751.999969 219.431192 L 161.99997499999998 219.431192 L 153.99997499999998 227.431192 L 153.99997499999998 760.126273105265 L 161.99997499999998 768.126273105265 L 997 768.126273105265" fill="none" stroke="green" stroke-width="4" marker-end="url(#arrowheadend)" />
  <path d="M 622.9999859999999 44 L 622.9999859999999 328.751945 L 742 328.751945 L 742 576" fill="none" stroke="black" stroke-width="2" marker-end="url(#arrowheadend)" />
  <rect x="627" y="444" width="200" height="132" rx="3" ry="3" fill="lavender" fill-opacity="50" stroke="turquoise" />
  <rect x="1086" y="33" width="130" height="401" rx="0" ry="0" stroke="black" />
  <rect x="1663" y="539" width="140" height="384" rx="0" ry="0" stroke="black" />
  <path d="M 1723.99996 923 L 1723.99996 466.500032 L 1138.99996 466.500032 L 1138.99996 33" fill="none" stroke="black" marker-end="url(#arrowheadend)" />
  <path d="M 1216 281.842956 L 894.00001 281.842956 L 894.00001 765.502016 L 1803 765.502016" fill="none" stroke="black" marker-end="url(#arrowheadend)" />
  <path d="M 1086 136.002063 L 2021.00004 136.002063 L 2021.00004 597.887552 L 1663 597.887552" fill="none" stroke="black" marker-end="url(#arrowheadend)" />
  <rect x="522.999969" y="44" width="237" height="237" rx="3" ry="3" fill="lightcyan" fill-opacity="100" stroke="darkcyan" stroke-width="2" />
</svg>
