
<svg xmlns="http://www.w3.org/2000/svg" width="100%" height="100%" viewBox="-10 -10 1988.833333 1066.499985">
<style>text { font-family: Roboto, Arial, sans-serif !important; }</style>  <rect x="333" y="616" width="584" height="200.999985" rx="5" ry="5"
			fill="bisque"
            fill-opacity="50.000000"
            stroke="lightcoral"
            stroke-opacity="1.000000"
            stroke-width="3.000000"
            stroke-dasharray=""
            transform="" />
  <text
			x="625" 
			y="636"
			writing-mode=""
			dominant-baseline="central"
			text-anchor="middle"
			font-family=""
			font-weight="100"
			font-style=""
			font-size=""
			letter-spacing=""
			fill="black"
            fill-opacity="100.000000"
            stroke="black"
            stroke-opacity="1.000000"
            stroke-width="1.000000"
            stroke-dasharray=""
            transform="" ><tspan x="625" text-anchor="middle">This      is an example of a note that</tspan><tspan x="625" dy="1.2em" text-anchor="middle">could be displayed on a diagram.</tspan><tspan x="625" dy="1.2em" text-anchor="middle"> </tspan><tspan x="625" dy="1.2em" text-anchor="middle">It could explain one aspect of the model</tspan><tspan x="625" dy="1.2em" text-anchor="middle">for instance, describing relations between structs</tspan><tspan x="625" dy="1.2em" text-anchor="middle"> </tspan><tspan x="625" dy="1.2em" text-anchor="middle">The text of a UML note refers a comment with the GONGNOTE keyword which is</tspan><tspan x="625" dy="1.2em" text-anchor="middle">a special case of go Note convention. See example</tspan><tspan x="625" dy="1.2em" text-anchor="middle">for details in the go code of the models.</tspan><tspan x="625" dy="1.2em" text-anchor="middle"> </tspan></text>
  <rect
			x="333" 
			y="616"
			width="100"
			height="50"
			fill="lightblue"
            fill-opacity="100.000000"
            stroke=""
            stroke-opacity="1.000000"
            stroke-width="0.000000"
            stroke-dasharray=""
            transform="" >
</rect>
<path
			d="M532-131q-6 5-12.5 8t-14.5 3q-8 0-16-3.5t-14-9.5q-41-44-60.5-90T395-320q0-37 11-78t38-106q23-57 32-87.5t9-56.5q0-34-15-63.5T423-771q-6-6-9.5-14t-3.5-16q0-8 3-14.5t8-12.5q6-6 13.5-9t15.5-3q8 0 15 3t13 8q44 41 65.5 86t21.5 95q0 35-10.5 73.5T518-474q-25 60-34 92t-9 61q0 35 14.5 67.5T534-188q5 6 8 13t3 15q0 8-3 15.5T532-131Zm195 0q-6 5-12.5 8t-14.5 3q-8 0-16-3.5t-14-9.5q-41-44-60.5-89.5T590-319q0-37 11-79t38-106q23-57 32-87t9-56q0-34-15-64.5T618-771q-6-6-9-13.5t-3-15.5q0-8 2.5-14.5T616-827q6-6 14-9.5t16-3.5q8 0 14.5 3t12.5 8q44 41 65.5 86t21.5 95q0 35-10.5 73.5T713-473q-25 60-34 92t-9 60q0 35 15 68.5t45 65.5q5 6 7.5 13t2.5 14q0 8-3 16t-10 13Zm-390 0q-6 5-12.5 8t-14.5 3q-8 0-16-3.5t-14-9.5q-41-44-60.5-89.5T200-319q0-37 11-79t38-106q23-57 32-87t9-56q0-34-15-64.5T228-771q-7-6-10-13.5t-3-15.5q0-8 3-15t8-13q6-6 13.5-9t15.5-3q8 0 15 3t13 8q44 41 65.5 85.5T370-648q0 35-10 73.5T324-474q-25 60-34 92t-9 61q0 35 14.5 68.5T340-187q5 6 7.5 13t2.5 14q0 8-3 16t-10 13Z"
			fill=""
            fill-opacity="0.000000"
            stroke="blue"
            stroke-opacity="1.000000"
            stroke-width="2.000000"
            stroke-dasharray=""
            transform="translate(333 816.999985) scale(0.2 0.2)" >
</path>
<path
			d="M532-131q-6 5-12.5 8t-14.5 3q-8 0-16-3.5t-14-9.5q-41-44-60.5-90T395-320q0-37 11-78t38-106q23-57 32-87.5t9-56.5q0-34-15-63.5T423-771q-6-6-9.5-14t-3.5-16q0-8 3-14.5t8-12.5q6-6 13.5-9t15.5-3q8 0 15 3t13 8q44 41 65.5 86t21.5 95q0 35-10.5 73.5T518-474q-25 60-34 92t-9 61q0 35 14.5 67.5T534-188q5 6 8 13t3 15q0 8-3 15.5T532-131Zm195 0q-6 5-12.5 8t-14.5 3q-8 0-16-3.5t-14-9.5q-41-44-60.5-89.5T590-319q0-37 11-79t38-106q23-57 32-87t9-56q0-34-15-64.5T618-771q-6-6-9-13.5t-3-15.5q0-8 2.5-14.5T616-827q6-6 14-9.5t16-3.5q8 0 14.5 3t12.5 8q44 41 65.5 86t21.5 95q0 35-10.5 73.5T713-473q-25 60-34 92t-9 60q0 35 15 68.5t45 65.5q5 6 7.5 13t2.5 14q0 8-3 16t-10 13Zm-390 0q-6 5-12.5 8t-14.5 3q-8 0-16-3.5t-14-9.5q-41-44-60.5-89.5T200-319q0-37 11-79t38-106q23-57 32-87t9-56q0-34-15-64.5T228-771q-7-6-10-13.5t-3-15.5q0-8 3-15t8-13q6-6 13.5-9t15.5-3q8 0 15 3t13 8q44 41 65.5 85.5T370-648q0 35-10 73.5T324-474q-25 60-34 92t-9 61q0 35 14.5 68.5T340-187q5 6 7.5 13t2.5 14q0 8-3 16t-10 13Z"
			fill=""
            fill-opacity="0.000000"
            stroke="blue"
            stroke-opacity="1.000000"
            stroke-width="2.000000"
            stroke-dasharray=""
            transform="translate(333 816.999985) scale(0.2 0.2)" >
</path>
	<line x1="425.999969" y1="125.499992" x2="147.999961" y2="125.499992"
			fill=""
            fill-opacity="0.000000"
            stroke="red"
            stroke-opacity="0.700000"
            stroke-width="5.000000"
            stroke-dasharray=""
            transform="" />
	<path d="M 424.232202 127.267759 L 415.999969 135.499992 M 424.232202 123.732225 L 415.999969 115.499992"
			fill=""
            fill-opacity="0.000000"
            stroke="red"
            stroke-opacity="0.700000"
            stroke-width="5.000000"
            stroke-dasharray=""
            transform="" />
	<path d="M 147.999961 125.499992 A 20.000000 20.000000 0 0 0 127.999961 145.499992"
			fill=""
            fill-opacity="0.000000"
            stroke="red"
            stroke-opacity="0.700000"
            stroke-width="5.000000"
            stroke-dasharray=""
            transform="" />
	<text xml:space="preserve"
			x="425.999969" 
			y="107.899992" 
			text-anchor="end"
			font-family=""
			font-weight="normal"
			font-style=""
			font-size=""
			letter-spacing=""
			fill="black"
            fill-opacity="0.000000"
            stroke="black"
            stroke-opacity="1.000000"
            stroke-width="1.000000"
            stroke-dasharray=""
            transform="">
		<tspan xml:space="preserve"> Start Left/Top </tspan>
	</text>
	<text xml:space="preserve"
			x="425.999969" 
			y="154.49999200000002" 
			text-anchor="end"
			font-family=""
			font-weight="normal"
			font-style=""
			font-size=""
			letter-spacing=""
			fill="black"
            fill-opacity="1.000000"
            stroke="black"
            stroke-opacity="1.000000"
            stroke-width="1.000000"
            stroke-dasharray=""
            transform="">
		<tspan xml:space="preserve"> Start Right/Bottom </tspan>
	</text>
	<line x1="127.99996100000001" y1="145.49999200000002" x2="127.99996100000001" y2="406"
			fill=""
            fill-opacity="0.000000"
            stroke="red"
            stroke-opacity="0.700000"
            stroke-width="5.000000"
            stroke-dasharray=""
            transform="" />
	<path d="M 127.999961 406.000000 A 20.000000 20.000000 0 0 0 147.999961 426.000000"
			fill=""
            fill-opacity="0.000000"
            stroke="red"
            stroke-opacity="0.700000"
            stroke-width="5.000000"
            stroke-dasharray=""
            transform="" />
	<line x1="147.999961" y1="426" x2="461" y2="426"
			fill=""
            fill-opacity="0.000000"
            stroke="red"
            stroke-opacity="0.700000"
            stroke-width="5.000000"
            stroke-dasharray=""
            transform="" />
	<path d="M 459.232233 427.767767 L 451.000000 436.000000 M 459.232233 424.232233 L 451.000000 416.000000"
			fill=""
            fill-opacity="0.000000"
            stroke="red"
            stroke-opacity="0.700000"
            stroke-width="5.000000"
            stroke-dasharray=""
            transform="" />
	<text xml:space="preserve"
			x="461" 
			y="495" 
			text-anchor="end"
			font-family=""
			font-weight="normal"
			font-style=""
			font-size=""
			letter-spacing=""
			fill="black"
            fill-opacity="1.000000"
            stroke="black"
            stroke-opacity="1.000000"
            stroke-width="1.000000"
            stroke-dasharray=""
            transform="">
		<tspan xml:space="preserve"> End Right/Bottom </tspan>
	</text>
	<text xml:space="preserve"
			x="421" 
			y="408.4" 
			text-anchor="end"
			font-family=""
			font-weight="normal"
			font-style=""
			font-size=""
			letter-spacing=""
			fill="blue"
            fill-opacity="0.000000"
            stroke="blue"
            stroke-opacity="1.000000"
            stroke-width="1.000000"
            stroke-dasharray=""
            transform="">
		<tspan xml:space="preserve"> End Left/Top </tspan>
	</text>
	<line x1="425.999969" y1="243.431192" x2="64.99997500000003" y2="243.431192"
			fill=""
            fill-opacity="0.000000"
            stroke="green"
            stroke-opacity="1.000000"
            stroke-width="4.000000"
            stroke-dasharray=""
            transform="" />
	<path d="M 64.999975 243.431192 A 8.000000 8.000000 0 0 0 56.999975 251.431192"
			fill=""
            fill-opacity="0.000000"
            stroke="green"
            stroke-opacity="1.000000"
            stroke-width="4.000000"
            stroke-dasharray=""
            transform="" />
	<text xml:space="preserve"
			x="296.99993800000004" 
			y="280.443704" 
			text-anchor="end"
			font-family=""
			font-weight="light"
			font-style=""
			font-size=""
			letter-spacing=""
			fill="cyan"
            fill-opacity="100.000000"
            stroke="cyan"
            stroke-opacity="1.000000"
            stroke-width="1.000000"
            stroke-dasharray=""
            transform="">
		<tspan xml:space="preserve"> Start Anchored 1 </tspan>
	</text>
	<line x1="56.999975000000035" y1="251.431192" x2="56.999975000000035" y2="740.589439105265"
			fill=""
            fill-opacity="0.000000"
            stroke="green"
            stroke-opacity="1.000000"
            stroke-width="4.000000"
            stroke-dasharray=""
            transform="" />
	<path d="M 56.999975 740.589439 A 8.000000 8.000000 0 0 0 64.999975 748.589439"
			fill=""
            fill-opacity="0.000000"
            stroke="green"
            stroke-opacity="1.000000"
            stroke-width="4.000000"
            stroke-dasharray=""
            transform="" />
	<line x1="64.99997500000003" y1="748.589439105265" x2="333" y2="748.589439105265"
			fill=""
            fill-opacity="0.000000"
            stroke="green"
            stroke-opacity="1.000000"
            stroke-width="4.000000"
            stroke-dasharray=""
            transform="" />
	<path d="M 331.585786 750.003653 L 323.000000 758.589439 M 331.585786 747.175226 L 323.000000 738.589439"
			fill=""
            fill-opacity="0.000000"
            stroke="green"
            stroke-opacity="1.000000"
            stroke-width="4.000000"
            stroke-dasharray=""
            transform="" />
	<line x1="511.97226847841165" y1="314.69283439604055" x2="504.4576636348059" y2="344.30816160395943"
			fill=""
            fill-opacity="0.000000"
            stroke="black"
            stroke-opacity="1.000000"
            stroke-width="2.000000"
            stroke-dasharray=""
            transform="" />
	<path d="M 512.483745 315.552132 L 516.312291 321.984213 M 511.112971 315.204311 L 504.680890 319.032857"
			fill=""
            fill-opacity="0.000000"
            stroke="black"
            stroke-opacity="1.000000"
            stroke-width="2.000000"
            stroke-dasharray=""
            transform="" />
	<path d="M 504.457664 344.308162 Q 501.998200 354.000996 505.929475 363.195836"
			fill=""
            fill-opacity="0.000000"
            stroke="black"
            stroke-opacity="1.000000"
            stroke-width="2.000000"
            stroke-dasharray=""
            transform="" />
	<line x1="505.9294753541702" y1="363.1958355358317" x2="530.4227789499471" y2="420.48309627850097"
			fill=""
            fill-opacity="0.000000"
            stroke="black"
            stroke-opacity="1.000000"
            stroke-width="2.000000"
            stroke-dasharray=""
            transform="" />
	<path d="M 529.494622 420.110906 L 515.984053 414.693176 M 530.794969 419.554940 L 536.212700 406.044370"
			fill=""
            fill-opacity="0.000000"
            stroke="black"
            stroke-opacity="1.000000"
            stroke-width="2.000000"
            stroke-dasharray=""
            transform="" />
  <rect x="461" y="426" width="200" height="132" rx="3" ry="3"
			fill="lavender"
            fill-opacity="0.000000"
            stroke="turquoise"
            stroke-opacity="1.000000"
            stroke-width="1.000000"
            stroke-dasharray=""
            transform="" />
	<line x1="579.8151453947153" y1="558" x2="595.5272011446722" y2="613.114943719139"
			fill=""
            fill-opacity="0.000000"
            stroke="blue"
            stroke-opacity="1.000000"
            stroke-width="1.000000"
            stroke-dasharray=""
            transform="" />
	<path d="M 595.090265 612.871865 L 583.168794 606.239643 M 595.770280 612.678008 L 602.402502 600.756536"
			fill=""
            fill-opacity="0.000000"
            stroke="blue"
            stroke-opacity="1.000000"
            stroke-width="1.000000"
            stroke-dasharray=""
            transform="" />
  <rect x="1125.333333" y="62.333332" width="853" height="125.571444" rx="20" ry="20"
			fill=""
            fill-opacity="0.000000"
            stroke="black"
            stroke-opacity="1.000000"
            stroke-width="1.000000"
            stroke-dasharray=""
            transform="" />
  <text
			x="1551.833333" 
			y="125.119054"
			writing-mode=""
			dominant-baseline="central"
			text-anchor="middle"
			font-family=""
			font-weight=""
			font-style=""
			font-size="27px"
			letter-spacing=""
			fill="black"
            fill-opacity="1.000000"
            stroke="black"
            stroke-opacity="1.000000"
            stroke-width="1.000000"
            stroke-dasharray=""
            transform="" ><tspan x="1551.833333" text-anchor="middle">Start</tspan></text>
  <rect x="937.769231" y="413.256327" width="430" height="384" rx="20" ry="20"
			fill=""
            fill-opacity="0.000000"
            stroke="black"
            stroke-opacity="1.000000"
            stroke-width="1.000000"
            stroke-dasharray=""
            transform="" />
  <text
			x="1152.769231" 
			y="605.256327"
			writing-mode=""
			dominant-baseline=""
			text-anchor="middle"
			font-family=""
			font-weight=""
			font-style=""
			font-size="27px"
			letter-spacing=""
			fill="black"
            fill-opacity="1.000000"
            stroke="black"
            stroke-opacity="1.000000"
            stroke-width="1.000000"
            stroke-dasharray=""
            transform="" ><tspan x="1152.769231" text-anchor="middle">End</tspan></text>
  <rect x="1180" y="500" width="100" height="100" rx="2" ry="2"
			fill=""
            fill-opacity="0.000000"
            stroke="blue"
            stroke-opacity="1.000000"
            stroke-width="1.000000"
            stroke-dasharray=""
            transform="" />
  <rect x="1180" y="500" width="100" height="100" rx="5" ry="5"
			fill=""
            fill-opacity="0.000000"
            stroke="red"
            stroke-opacity="1.000000"
            stroke-width="1.000000"
            stroke-dasharray=""
            transform="" />
	<line x1="1457.000205" y1="187.904776" x2="1457.000205" y2="288.005197756364"
			fill=""
            fill-opacity="0.000000"
            stroke="black"
            stroke-opacity="1.000000"
            stroke-width="1.000000"
            stroke-dasharray=""
            transform="" />
	<path d="M 1457.353758 188.258329 L 1467.000205 197.904776 M 1456.646652 188.258329 L 1447.000205 197.904776"
			fill=""
            fill-opacity="0.000000"
            stroke="black"
            stroke-opacity="1.000000"
            stroke-width="1.000000"
            stroke-dasharray=""
            transform="" />
	<path d="M 1457.000205 288.005198 A 20.000000 20.000000 0 0 1 1437.000205 308.005198"
			fill=""
            fill-opacity="0.000000"
            stroke="black"
            stroke-opacity="1.000000"
            stroke-width="1.000000"
            stroke-dasharray=""
            transform="" />
	<text xml:space="preserve"
			x="1457.000205" 
			y="221.904776" 
			text-anchor="end"
			font-family=""
			font-weight=""
			font-style=""
			font-size=""
			letter-spacing=""
			fill="black"
            fill-opacity="1.000000"
            stroke="black"
            stroke-opacity="1.000000"
            stroke-width="1.000000"
            stroke-dasharray=""
            transform="">
		<tspan xml:space="preserve"> LEFT_OR_TOP </tspan>
	</text>
	<text xml:space="preserve"
			x="1457.000205" 
			y="221.904776" 
			text-anchor="start"
			font-family=""
			font-weight=""
			font-style=""
			font-size="16"
			letter-spacing=""
			fill="black"
            fill-opacity="1.000000"
            stroke="black"
            stroke-opacity="1.000000"
            stroke-width="1.000000"
            stroke-dasharray=""
            transform="">
		<tspan xml:space="preserve"> RIGHT_OR_BOTTOM </tspan>
	</text>
	<text xml:space="preserve"
			x="1469.000205" 
			y="311.205197756364" 
			text-anchor="start"
			font-family=""
			font-weight=""
			font-style=""
			font-size=""
			letter-spacing=""
			fill="green"
            fill-opacity="1.000000"
            stroke="green"
            stroke-opacity="1.000000"
            stroke-width="1.000000"
            stroke-dasharray=""
            transform="">
		<tspan xml:space="preserve"> TEXT AT CORNER </tspan>
	</text>
	<path
			d="M532-131q-6 5-12.5 8t-14.5 3q-8 0-16-3.5t-14-9.5q-41-44-60.5-90T395-320q0-37 11-78t38-106q23-57 32-87.5t9-56.5q0-34-15-63.5T423-771q-6-6-9.5-14t-3.5-16q0-8 3-14.5t8-12.5q6-6 13.5-9t15.5-3q8 0 15 3t13 8q44 41 65.5 86t21.5 95q0 35-10.5 73.5T518-474q-25 60-34 92t-9 61q0 35 14.5 67.5T534-188q5 6 8 13t3 15q0 8-3 15.5T532-131Zm195 0q-6 5-12.5 8t-14.5 3q-8 0-16-3.5t-14-9.5q-41-44-60.5-89.5T590-319q0-37 11-79t38-106q23-57 32-87t9-56q0-34-15-64.5T618-771q-6-6-9-13.5t-3-15.5q0-8 2.5-14.5T616-827q6-6 14-9.5t16-3.5q8 0 14.5 3t12.5 8q44 41 65.5 86t21.5 95q0 35-10.5 73.5T713-473q-25 60-34 92t-9 60q0 35 15 68.5t45 65.5q5 6 7.5 13t2.5 14q0 8-3 16t-10 13Zm-390 0q-6 5-12.5 8t-14.5 3q-8 0-16-3.5t-14-9.5q-41-44-60.5-89.5T200-319q0-37 11-79t38-106q23-57 32-87t9-56q0-34-15-64.5T228-771q-7-6-10-13.5t-3-15.5q0-8 3-15t8-13q6-6 13.5-9t15.5-3q8 0 15 3t13 8q44 41 65.5 85.5T370-648q0 35-10 73.5T324-474q-25 60-34 92t-9 61q0 35 14.5 68.5T340-187q5 6 7.5 13t2.5 14q0 8-3 16t-10 13Z"
			fill=""
            fill-opacity="0.000000"
            stroke="red"
            stroke-opacity="1.000000"
            stroke-width="4.000000"
            stroke-dasharray=""
            transform="translate(1457.000205 187.904776) scale(0.05 0.05)" />
	<path
			d="M532-131q-6 5-12.5 8t-14.5 3q-8 0-16-3.5t-14-9.5q-41-44-60.5-90T395-320q0-37 11-78t38-106q23-57 32-87.5t9-56.5q0-34-15-63.5T423-771q-6-6-9.5-14t-3.5-16q0-8 3-14.5t8-12.5q6-6 13.5-9t15.5-3q8 0 15 3t13 8q44 41 65.5 86t21.5 95q0 35-10.5 73.5T518-474q-25 60-34 92t-9 61q0 35 14.5 67.5T534-188q5 6 8 13t3 15q0 8-3 15.5T532-131Zm195 0q-6 5-12.5 8t-14.5 3q-8 0-16-3.5t-14-9.5q-41-44-60.5-89.5T590-319q0-37 11-79t38-106q23-57 32-87t9-56q0-34-15-64.5T618-771q-6-6-9-13.5t-3-15.5q0-8 2.5-14.5T616-827q6-6 14-9.5t16-3.5q8 0 14.5 3t12.5 8q44 41 65.5 86t21.5 95q0 35-10.5 73.5T713-473q-25 60-34 92t-9 60q0 35 15 68.5t45 65.5q5 6 7.5 13t2.5 14q0 8-3 16t-10 13Zm-390 0q-6 5-12.5 8t-14.5 3q-8 0-16-3.5t-14-9.5q-41-44-60.5-89.5T200-319q0-37 11-79t38-106q23-57 32-87t9-56q0-34-15-64.5T228-771q-7-6-10-13.5t-3-15.5q0-8 3-15t8-13q6-6 13.5-9t15.5-3q8 0 15 3t13 8q44 41 65.5 85.5T370-648q0 35-10 73.5T324-474q-25 60-34 92t-9 61q0 35 14.5 68.5T340-187q5 6 7.5 13t2.5 14q0 8-3 16t-10 13Z"
			fill=""
            fill-opacity="0.000000"
            stroke="red"
            stroke-opacity="1.000000"
            stroke-width="4.000000"
            stroke-dasharray=""
            transform="translate(1469.000205 296.005197756364) scale(0.05 0.05)" />
	<line x1="1437.000205" y1="308.005197756364" x2="1227.367191" y2="308.005197756364"
			fill=""
            fill-opacity="0.000000"
            stroke="black"
            stroke-opacity="1.000000"
            stroke-width="1.000000"
            stroke-dasharray=""
            transform="" />
	<path d="M 1227.367191 308.005198 A 20.000000 20.000000 0 0 0 1207.367191 328.005198"
			fill=""
            fill-opacity="0.000000"
            stroke="black"
            stroke-opacity="1.000000"
            stroke-width="1.000000"
            stroke-dasharray=""
            transform="" />
	<line x1="1207.367191" y1="328.005197756364" x2="1207.367191" y2="413.256327"
			fill=""
            fill-opacity="0.000000"
            stroke="black"
            stroke-opacity="1.000000"
            stroke-width="1.000000"
            stroke-dasharray=""
            transform="" />
	<path d="M 1207.013638 412.902774 L 1192.367191 398.256327 M 1207.720744 412.902774 L 1222.367191 398.256327"
			fill=""
            fill-opacity="0.000000"
            stroke="black"
            stroke-opacity="1.000000"
            stroke-width="1.000000"
            stroke-dasharray=""
            transform="" />
	<text xml:space="preserve"
			x="1207.367191" 
			y="390.656327" 
			text-anchor="end"
			font-family=""
			font-weight=""
			font-style=""
			font-size=""
			letter-spacing=""
			fill="black"
            fill-opacity="1.000000"
            stroke="black"
            stroke-opacity="1.000000"
            stroke-width="1.000000"
            stroke-dasharray=""
            transform="">
		<tspan xml:space="preserve"> LEFT_OR_TOP </tspan>
	</text>
	<text xml:space="preserve"
			x="1207.367191" 
			y="390.656327" 
			text-anchor="start"
			font-family=""
			font-weight=""
			font-style=""
			font-size="16"
			letter-spacing=""
			fill="black"
            fill-opacity="1.000000"
            stroke="black"
            stroke-opacity="1.000000"
            stroke-width="1.000000"
            stroke-dasharray=""
            transform="">
		<tspan xml:space="preserve"> RIGHT_OR_BOTTOM </tspan>
	</text>
	<path
			d="M532-131q-6 5-12.5 8t-14.5 3q-8 0-16-3.5t-14-9.5q-41-44-60.5-90T395-320q0-37 11-78t38-106q23-57 32-87.5t9-56.5q0-34-15-63.5T423-771q-6-6-9.5-14t-3.5-16q0-8 3-14.5t8-12.5q6-6 13.5-9t15.5-3q8 0 15 3t13 8q44 41 65.5 86t21.5 95q0 35-10.5 73.5T518-474q-25 60-34 92t-9 61q0 35 14.5 67.5T534-188q5 6 8 13t3 15q0 8-3 15.5T532-131Zm195 0q-6 5-12.5 8t-14.5 3q-8 0-16-3.5t-14-9.5q-41-44-60.5-89.5T590-319q0-37 11-79t38-106q23-57 32-87t9-56q0-34-15-64.5T618-771q-6-6-9-13.5t-3-15.5q0-8 2.5-14.5T616-827q6-6 14-9.5t16-3.5q8 0 14.5 3t12.5 8q44 41 65.5 86t21.5 95q0 35-10.5 73.5T713-473q-25 60-34 92t-9 60q0 35 15 68.5t45 65.5q5 6 7.5 13t2.5 14q0 8-3 16t-10 13Zm-390 0q-6 5-12.5 8t-14.5 3q-8 0-16-3.5t-14-9.5q-41-44-60.5-89.5T200-319q0-37 11-79t38-106q23-57 32-87t9-56q0-34-15-64.5T228-771q-7-6-10-13.5t-3-15.5q0-8 3-15t8-13q6-6 13.5-9t15.5-3q8 0 15 3t13 8q44 41 65.5 85.5T370-648q0 35-10 73.5T324-474q-25 60-34 92t-9 61q0 35 14.5 68.5T340-187q5 6 7.5 13t2.5 14q0 8-3 16t-10 13Z"
			fill=""
            fill-opacity="0.000000"
            stroke="red"
            stroke-opacity="1.000000"
            stroke-width="4.000000"
            stroke-dasharray=""
            transform="translate(1207.367191 413.256327) scale(0.05 0.05)" />
	<line x1="1367.769231" y1="662.004999" x2="1861.0003530000001" y2="662.004999"
			fill=""
            fill-opacity="0.000000"
            stroke="black"
            stroke-opacity="1.000000"
            stroke-width="1.000000"
            stroke-dasharray=""
            transform="" />
	<path d="M 1368.122784 661.651446 L 1377.769231 652.004999 M 1368.122784 662.358552 L 1377.769231 672.004999"
			fill=""
            fill-opacity="0.000000"
            stroke="black"
            stroke-opacity="1.000000"
            stroke-width="1.000000"
            stroke-dasharray=""
            transform="" />
	<path d="M 1861.000353 662.004999 A 40.000000 40.000000 0 0 0 1901.000353 622.004999"
			fill=""
            fill-opacity="0.000000"
            stroke="black"
            stroke-opacity="1.000000"
            stroke-width="1.000000"
            stroke-dasharray=""
            transform="" />
	<text xml:space="preserve"
			x="1367.769231" 
			y="639.404999" 
			text-anchor="start"
			font-family=""
			font-weight=""
			font-style=""
			font-size=""
			letter-spacing=""
			fill="black"
            fill-opacity="1.000000"
            stroke="black"
            stroke-opacity="1.000000"
            stroke-width="1.000000"
            stroke-dasharray=""
            transform="">
		<tspan xml:space="preserve"> LEFT_OR_TOP </tspan>
	</text>
	<text xml:space="preserve"
			x="1367.769231" 
			y="696.004999" 
			text-anchor="start"
			font-family=""
			font-weight=""
			font-style=""
			font-size="16"
			letter-spacing=""
			fill="black"
            fill-opacity="1.000000"
            stroke="black"
            stroke-opacity="1.000000"
            stroke-width="1.000000"
            stroke-dasharray=""
            transform="">
		<tspan xml:space="preserve"> RIGHT_OR_BOTTOM </tspan>
	</text>
	<text xml:space="preserve"
			x="1367.769231" 
			y="736.004999" 
			text-anchor="start"
			font-family=""
			font-weight=""
			font-style=""
			font-size=""
			letter-spacing=""
			fill="red"
            fill-opacity="1.000000"
            stroke="red"
            stroke-opacity="1.000000"
            stroke-width="1.000000"
            stroke-dasharray=""
            transform="">
		<tspan xml:space="preserve"> AA_RIGHT_OR_BOTTOM_BELOW </tspan>
	</text>
	<text xml:space="preserve"
			x="1367.769231" 
			y="599.404999" 
			text-anchor="start"
			font-family=""
			font-weight=""
			font-style=""
			font-size=""
			letter-spacing=""
			fill="blue"
            fill-opacity="1.000000"
            stroke="blue"
            stroke-opacity="1.000000"
            stroke-width="1.000000"
            stroke-dasharray=""
            transform="">
		<tspan xml:space="preserve"> LEFT_OR_TOP_ABOVE </tspan>
	</text>
	<text xml:space="preserve"
			x="1861.0003530000001" 
			y="685.204999" 
			text-anchor="middle"
			font-family=""
			font-weight=""
			font-style=""
			font-size=""
			letter-spacing=""
			fill="green"
            fill-opacity="1.000000"
            stroke="green"
            stroke-opacity="1.000000"
            stroke-width="1.000000"
            stroke-dasharray=""
            transform="">
		<tspan xml:space="preserve"> TEXT AT CORNER </tspan>
	</text>
	<line x1="1901.0003530000001" y1="622.004999" x2="1901.0003530000001" y2="187.904776"
			fill=""
            fill-opacity="0.000000"
            stroke="black"
            stroke-opacity="1.000000"
            stroke-width="1.000000"
            stroke-dasharray=""
            transform="" />
	<path d="M 1901.353906 188.258329 L 1916.000353 202.904776 M 1900.646800 188.258329 L 1886.000353 202.904776"
			fill=""
            fill-opacity="0.000000"
            stroke="black"
            stroke-opacity="1.000000"
            stroke-width="1.000000"
            stroke-dasharray=""
            transform="" />
	<text xml:space="preserve"
			x="1901.0003530000001" 
			y="221.904776" 
			text-anchor="end"
			font-family=""
			font-weight=""
			font-style=""
			font-size=""
			letter-spacing=""
			fill="black"
            fill-opacity="1.000000"
            stroke="black"
            stroke-opacity="1.000000"
            stroke-width="1.000000"
            stroke-dasharray=""
            transform="">
		<tspan xml:space="preserve"> LEFT_OR_TOP </tspan>
	</text>
	<text xml:space="preserve"
			x="1901.0003530000001" 
			y="221.904776" 
			text-anchor="start"
			font-family=""
			font-weight=""
			font-style=""
			font-size="16"
			letter-spacing=""
			fill="black"
            fill-opacity="1.000000"
            stroke="black"
            stroke-opacity="1.000000"
            stroke-width="1.000000"
            stroke-dasharray=""
            transform="">
		<tspan xml:space="preserve"> RIGHT_OR_BOTTOM </tspan>
	</text>
	<text xml:space="preserve"
			x="1901.0003530000001" 
			y="261.90477599999997" 
			text-anchor="start"
			font-family=""
			font-weight=""
			font-style=""
			font-size=""
			letter-spacing=""
			fill="red"
            fill-opacity="1.000000"
            stroke="red"
            stroke-opacity="1.000000"
            stroke-width="1.000000"
            stroke-dasharray=""
            transform="">
		<tspan xml:space="preserve"> AA_RIGHT_OR_BOTTOM_BELOW </tspan>
	</text>
	<text xml:space="preserve"
			x="1901.0003530000001" 
			y="181.904776" 
			text-anchor="end"
			font-family=""
			font-weight=""
			font-style=""
			font-size=""
			letter-spacing=""
			fill="blue"
            fill-opacity="1.000000"
            stroke="blue"
            stroke-opacity="1.000000"
            stroke-width="1.000000"
            stroke-dasharray=""
            transform="">
		<tspan xml:space="preserve"> LEFT_OR_TOP_ABOVE </tspan>
	</text>
	<line x1="1125.333333" y1="140.257445002864" x2="827.9997010000001" y2="140.257445002864"
			fill=""
            fill-opacity="0.000000"
            stroke="black"
            stroke-opacity="1.000000"
            stroke-width="1.000000"
            stroke-dasharray=""
            transform="" />
	<path d="M 1124.979780 140.610998 L 1115.333333 150.257445 M 1124.979780 139.903892 L 1115.333333 130.257445"
			fill=""
            fill-opacity="0.000000"
            stroke="black"
            stroke-opacity="1.000000"
            stroke-width="1.000000"
            stroke-dasharray=""
            transform="" />
	<path d="M 827.999701 140.257445 A 30.000000 30.000000 0 0 0 797.999701 170.257445"
			fill=""
            fill-opacity="0.000000"
            stroke="black"
            stroke-opacity="1.000000"
            stroke-width="1.000000"
            stroke-dasharray=""
            transform="" />
	<text xml:space="preserve"
			x="1125.333333" 
			y="117.657445002864" 
			text-anchor="end"
			font-family=""
			font-weight=""
			font-style=""
			font-size=""
			letter-spacing=""
			fill="black"
            fill-opacity="1.000000"
            stroke="black"
            stroke-opacity="1.000000"
            stroke-width="1.000000"
            stroke-dasharray=""
            transform="">
		<tspan xml:space="preserve"> LEFT_OR_TOP </tspan>
	</text>
	<text xml:space="preserve"
			x="1125.333333" 
			y="174.257445002864" 
			text-anchor="end"
			font-family=""
			font-weight=""
			font-style=""
			font-size="16"
			letter-spacing=""
			fill="black"
            fill-opacity="1.000000"
            stroke="black"
            stroke-opacity="1.000000"
            stroke-width="1.000000"
            stroke-dasharray=""
            transform="">
		<tspan xml:space="preserve"> RIGHT_OR_BOTTOM </tspan>
	</text>
	<text xml:space="preserve"
			x="827.9997010000001" 
			y="132.257445002864" 
			text-anchor="middle"
			font-family=""
			font-weight=""
			font-style=""
			font-size=""
			letter-spacing=""
			fill="green"
            fill-opacity="1.000000"
            stroke="green"
            stroke-opacity="1.000000"
            stroke-width="1.000000"
            stroke-dasharray=""
            transform="">
		<tspan xml:space="preserve"> TEXT AT CORNER </tspan>
	</text>
	<line x1="797.9997010000001" y1="170.257445002864" x2="797.9997010000001" y2="540.005127"
			fill=""
            fill-opacity="0.000000"
            stroke="black"
            stroke-opacity="1.000000"
            stroke-width="1.000000"
            stroke-dasharray=""
            transform="" />
	<path d="M 797.999701 540.005127 A 30.000000 30.000000 0 0 0 827.999701 570.005127"
			fill=""
            fill-opacity="0.000000"
            stroke="black"
            stroke-opacity="1.000000"
            stroke-width="1.000000"
            stroke-dasharray=""
            transform="" />
	<line x1="827.9997010000001" y1="570.005127" x2="937.769231" y2="570.005127"
			fill=""
            fill-opacity="0.000000"
            stroke="black"
            stroke-opacity="1.000000"
            stroke-width="1.000000"
            stroke-dasharray=""
            transform="" />
	<path d="M 937.415678 570.358680 L 922.769231 585.005127 M 937.415678 569.651574 L 922.769231 555.005127"
			fill=""
            fill-opacity="0.000000"
            stroke="black"
            stroke-opacity="1.000000"
            stroke-width="1.000000"
            stroke-dasharray=""
            transform="" />
	<text xml:space="preserve"
			x="937.769231" 
			y="547.405127" 
			text-anchor="end"
			font-family=""
			font-weight=""
			font-style=""
			font-size=""
			letter-spacing=""
			fill="black"
            fill-opacity="1.000000"
            stroke="black"
            stroke-opacity="1.000000"
            stroke-width="1.000000"
            stroke-dasharray=""
            transform="">
		<tspan xml:space="preserve"> LEFT_OR_TOP </tspan>
	</text>
	<text xml:space="preserve"
			x="937.769231" 
			y="604.005127" 
			text-anchor="end"
			font-family=""
			font-weight=""
			font-style=""
			font-size="16"
			letter-spacing=""
			fill="black"
            fill-opacity="1.000000"
            stroke="black"
            stroke-opacity="1.000000"
            stroke-width="1.000000"
            stroke-dasharray=""
            transform="">
		<tspan xml:space="preserve"> RIGHT_OR_BOTTOM </tspan>
	</text>
  <rect x="425.999969" y="68" width="237" height="237" rx="3" ry="3"
			fill="lightcyan"
            fill-opacity="0.000000"
            stroke="darkcyan"
            stroke-opacity="1.000000"
            stroke-width="2.000000"
            stroke-dasharray=""
            transform="" />
  <rect
			x="544.499969" 
			y="108"
			width="100"
			height="30"
			fill="lightgrey"
            fill-opacity="40.000000"
            stroke="bisque"
            stroke-opacity="1.000000"
            stroke-width="1.000000"
            stroke-dasharray=""
            transform="" >
</rect>
<path
			d="M532-131q-6 5-12.5 8t-14.5 3q-8 0-16-3.5t-14-9.5q-41-44-60.5-90T395-320q0-37 11-78t38-106q23-57 32-87.5t9-56.5q0-34-15-63.5T423-771q-6-6-9.5-14t-3.5-16q0-8 3-14.5t8-12.5q6-6 13.5-9t15.5-3q8 0 15 3t13 8q44 41 65.5 86t21.5 95q0 35-10.5 73.5T518-474q-25 60-34 92t-9 61q0 35 14.5 67.5T534-188q5 6 8 13t3 15q0 8-3 15.5T532-131Zm195 0q-6 5-12.5 8t-14.5 3q-8 0-16-3.5t-14-9.5q-41-44-60.5-89.5T590-319q0-37 11-79t38-106q23-57 32-87t9-56q0-34-15-64.5T618-771q-6-6-9-13.5t-3-15.5q0-8 2.5-14.5T616-827q6-6 14-9.5t16-3.5q8 0 14.5 3t12.5 8q44 41 65.5 86t21.5 95q0 35-10.5 73.5T713-473q-25 60-34 92t-9 60q0 35 15 68.5t45 65.5q5 6 7.5 13t2.5 14q0 8-3 16t-10 13Zm-390 0q-6 5-12.5 8t-14.5 3q-8 0-16-3.5t-14-9.5q-41-44-60.5-89.5T200-319q0-37 11-79t38-106q23-57 32-87t9-56q0-34-15-64.5T228-771q-7-6-10-13.5t-3-15.5q0-8 3-15t8-13q6-6 13.5-9t15.5-3q8 0 15 3t13 8q44 41 65.5 85.5T370-648q0 35-10 73.5T324-474q-25 60-34 92t-9 61q0 35 14.5 68.5T340-187q5 6 7.5 13t2.5 14q0 8-3 16t-10 13Z"
			fill="black"
            fill-opacity="0.500000"
            stroke="black"
            stroke-opacity="1.000000"
            stroke-width="1.000000"
            stroke-dasharray=""
            transform="translate(425.999969 305) scale(0.2 0.2)" >
</path>
</svg>
