
<svg xmlns="http://www.w3.org/2000/svg" width="100%" height="100%" viewBox="-10 -10 1988.833333 1066.499985">
<style>text { font-family: Roboto, Arial, sans-serif !important; }</style>  <rect x="333" y="616" width="584" height="200.999985" rx="5" ry="5"
			fill="bisque"
            fill-opacity="50.000000"
            stroke="lightcoral"
            stroke-opacity="1.000000"
            stroke-width="3.000000"
            stroke-dasharray=""
            transform="" />
  <text
			x="625" 
			y="636"
			writing-mode=""
			dominant-baseline="central"
			text-anchor="middle"
			font-weight="100"
			font-style=""
			font-size=""
			fill="black"
            fill-opacity="100.000000"
            stroke="black"
            stroke-opacity="1.000000"
            stroke-width="1.000000"
            stroke-dasharray=""
            transform="" ><tspan x="625" text-anchor="middle">This is an example of a note that</tspan><tspan x="625" dy="1.2em" text-anchor="middle">could be displayed on a diagram.</tspan><tspan x="625" dy="1.2em" text-anchor="middle"> </tspan><tspan x="625" dy="1.2em" text-anchor="middle">It could explain one aspect of the model</tspan><tspan x="625" dy="1.2em" text-anchor="middle">for instance, describing relations between structs</tspan><tspan x="625" dy="1.2em" text-anchor="middle"> </tspan><tspan x="625" dy="1.2em" text-anchor="middle">The text of a UML note refers a comment with the GONGNOTE keyword which is</tspan><tspan x="625" dy="1.2em" text-anchor="middle">a special case of go Note convention. See example</tspan><tspan x="625" dy="1.2em" text-anchor="middle">for details in the go code of the models.</tspan><tspan x="625" dy="1.2em" text-anchor="middle"> </tspan></text>
  <rect
			x="333" 
			y="616"
			width="100"
			height="50"
			fill="lightblue"
            fill-opacity="100.000000"
            stroke=""
            stroke-opacity="1.000000"
            stroke-width="0.000000"
            stroke-dasharray=""
            transform="" >
</rect>
<path
			d="M532-131q-6 5-12.5 8t-14.5 3q-8 0-16-3.5t-14-9.5q-41-44-60.5-90T395-320q0-37 11-78t38-106q23-57 32-87.5t9-56.5q0-34-15-63.5T423-771q-6-6-9.5-14t-3.5-16q0-8 3-14.5t8-12.5q6-6 13.5-9t15.5-3q8 0 15 3t13 8q44 41 65.5 86t21.5 95q0 35-10.5 73.5T518-474q-25 60-34 92t-9 61q0 35 14.5 67.5T534-188q5 6 8 13t3 15q0 8-3 15.5T532-131Zm195 0q-6 5-12.5 8t-14.5 3q-8 0-16-3.5t-14-9.5q-41-44-60.5-89.5T590-319q0-37 11-79t38-106q23-57 32-87t9-56q0-34-15-64.5T618-771q-6-6-9-13.5t-3-15.5q0-8 2.5-14.5T616-827q6-6 14-9.5t16-3.5q8 0 14.5 3t12.5 8q44 41 65.5 86t21.5 95q0 35-10.5 73.5T713-473q-25 60-34 92t-9 60q0 35 15 68.5t45 65.5q5 6 7.5 13t2.5 14q0 8-3 16t-10 13Zm-390 0q-6 5-12.5 8t-14.5 3q-8 0-16-3.5t-14-9.5q-41-44-60.5-89.5T200-319q0-37 11-79t38-106q23-57 32-87t9-56q0-34-15-64.5T228-771q-7-6-10-13.5t-3-15.5q0-8 3-15t8-13q6-6 13.5-9t15.5-3q8 0 15 3t13 8q44 41 65.5 85.5T370-648q0 35-10 73.5T324-474q-25 60-34 92t-9 61q0 35 14.5 68.5T340-187q5 6 7.5 13t2.5 14q0 8-3 16t-10 13Z"
			fill=""
            fill-opacity="0.000000"
            stroke="blue"
            stroke-opacity="1.000000"
            stroke-width="2.000000"
            stroke-dasharray=""
            transform="translate(333 816.999985) scale(0.2 0.2)" >
</path>
<path
			d="M532-131q-6 5-12.5 8t-14.5 3q-8 0-16-3.5t-14-9.5q-41-44-60.5-90T395-320q0-37 11-78t38-106q23-57 32-87.5t9-56.5q0-34-15-63.5T423-771q-6-6-9.5-14t-3.5-16q0-8 3-14.5t8-12.5q6-6 13.5-9t15.5-3q8 0 15 3t13 8q44 41 65.5 86t21.5 95q0 35-10.5 73.5T518-474q-25 60-34 92t-9 61q0 35 14.5 67.5T534-188q5 6 8 13t3 15q0 8-3 15.5T532-131Zm195 0q-6 5-12.5 8t-14.5 3q-8 0-16-3.5t-14-9.5q-41-44-60.5-89.5T590-319q0-37 11-79t38-106q23-57 32-87t9-56q0-34-15-64.5T618-771q-6-6-9-13.5t-3-15.5q0-8 2.5-14.5T616-827q6-6 14-9.5t16-3.5q8 0 14.5 3t12.5 8q44 41 65.5 86t21.5 95q0 35-10.5 73.5T713-473q-25 60-34 92t-9 60q0 35 15 68.5t45 65.5q5 6 7.5 13t2.5 14q0 8-3 16t-10 13Zm-390 0q-6 5-12.5 8t-14.5 3q-8 0-16-3.5t-14-9.5q-41-44-60.5-89.5T200-319q0-37 11-79t38-106q23-57 32-87t9-56q0-34-15-64.5T228-771q-7-6-10-13.5t-3-15.5q0-8 3-15t8-13q6-6 13.5-9t15.5-3q8 0 15 3t13 8q44 41 65.5 85.5T370-648q0 35-10 73.5T324-474q-25 60-34 92t-9 61q0 35 14.5 68.5T340-187q5 6 7.5 13t2.5 14q0 8-3 16t-10 13Z"
			fill=""
            fill-opacity="0.000000"
            stroke="blue"
            stroke-opacity="1.000000"
            stroke-width="2.000000"
            stroke-dasharray=""
            transform="translate(333 816.999985) scale(0.2 0.2)" >
</path>
	<line x1="473.999969" y1="104.499992" x2="195.999961" y2="104.499992"
			fill=""
            fill-opacity="0.000000"
            stroke="red"
            stroke-opacity="0.700000"
            stroke-width="5.000000"
            stroke-dasharray=""
            transform="" />
	<path d="M 475.767736 106.267759 L 463.999969 94.499992 M 475.767736 102.732225 L 463.999969 114.499992"
			fill=""
            fill-opacity="0.000000"
            stroke="red"
            stroke-opacity="0.700000"
            stroke-width="5.000000"
            stroke-dasharray=""
            transform="" />
	<path d="M 195.999961 104.499992 A 20.000000 20.000000 0 0 0 175.999961 124.499992"
			fill=""
            fill-opacity="0.000000"
            stroke="red"
            stroke-opacity="0.700000"
            stroke-width="5.000000"
            stroke-dasharray=""
            transform="" />
	<text xml:space="preserve"
			x="473.999969" 
			y="86.899992" 
			text-anchor="end"
			font-weight="normal"
			font-style=""
			font-size=""
			fill="black"
            fill-opacity="0.000000"
            stroke="black"
            stroke-opacity="1.000000"
            stroke-width="1.000000"
            stroke-dasharray=""
            transform="">
		<tspan xml:space="preserve"> Start Left/Top </tspan>
	</text>
	<text xml:space="preserve"
			x="473.999969" 
			y="133.49999200000002" 
			text-anchor="end"
			font-weight="normal"
			font-style=""
			font-size=""
			fill="black"
            fill-opacity="1.000000"
            stroke="black"
            stroke-opacity="1.000000"
            stroke-width="1.000000"
            stroke-dasharray=""
            transform="">
		<tspan xml:space="preserve"> Start Right/Bottom </tspan>
	</text>
	<line x1="175.999961" y1="124.499992" x2="175.999961" y2="406"
			fill=""
            fill-opacity="0.000000"
            stroke="red"
            stroke-opacity="0.700000"
            stroke-width="5.000000"
            stroke-dasharray=""
            transform="" />
	<path d="M 175.999961 406.000000 A 20.000000 20.000000 0 0 0 195.999961 426.000000"
			fill=""
            fill-opacity="0.000000"
            stroke="red"
            stroke-opacity="0.700000"
            stroke-width="5.000000"
            stroke-dasharray=""
            transform="" />
	<line x1="195.999961" y1="426" x2="461" y2="426"
			fill=""
            fill-opacity="0.000000"
            stroke="red"
            stroke-opacity="0.700000"
            stroke-width="5.000000"
            stroke-dasharray=""
            transform="" />
	<path d="M 462.767767 427.767767 L 451.000000 416.000000 M 462.767767 424.232233 L 451.000000 436.000000"
			fill=""
            fill-opacity="0.000000"
            stroke="red"
            stroke-opacity="0.700000"
            stroke-width="5.000000"
            stroke-dasharray=""
            transform="" />
	<text xml:space="preserve"
			x="461" 
			y="495" 
			text-anchor="end"
			font-weight="normal"
			font-style=""
			font-size=""
			fill="black"
            fill-opacity="1.000000"
            stroke="black"
            stroke-opacity="1.000000"
            stroke-width="1.000000"
            stroke-dasharray=""
            transform="">
		<tspan xml:space="preserve"> End Right/Bottom </tspan>
	</text>
	<text xml:space="preserve"
			x="421" 
			y="408.4" 
			text-anchor="end"
			font-weight="normal"
			font-style=""
			font-size=""
			fill="blue"
            fill-opacity="0.000000"
            stroke="blue"
            stroke-opacity="1.000000"
            stroke-width="1.000000"
            stroke-dasharray=""
            transform="">
		<tspan xml:space="preserve"> End Left/Top </tspan>
	</text>
	<line x1="473.999969" y1="222.431192" x2="112.99997500000003" y2="222.431192"
			fill=""
            fill-opacity="0.000000"
            stroke="green"
            stroke-opacity="1.000000"
            stroke-width="4.000000"
            stroke-dasharray=""
            transform="" />
	<path d="M 112.999975 222.431192 A 8.000000 8.000000 0 0 0 104.999975 230.431192"
			fill=""
            fill-opacity="0.000000"
            stroke="green"
            stroke-opacity="1.000000"
            stroke-width="4.000000"
            stroke-dasharray=""
            transform="" />
	<text xml:space="preserve"
			x="344.99993800000004" 
			y="259.443704" 
			text-anchor="end"
			font-weight="light"
			font-style=""
			font-size=""
			fill="cyan"
            fill-opacity="100.000000"
            stroke="cyan"
            stroke-opacity="1.000000"
            stroke-width="1.000000"
            stroke-dasharray=""
            transform="">
		<tspan xml:space="preserve"> Start Anchored 1 </tspan>
	</text>
	<line x1="104.99997500000003" y1="230.431192" x2="104.99997500000003" y2="740.589439105265"
			fill=""
            fill-opacity="0.000000"
            stroke="green"
            stroke-opacity="1.000000"
            stroke-width="4.000000"
            stroke-dasharray=""
            transform="" />
	<path d="M 104.999975 740.589439 A 8.000000 8.000000 0 0 0 112.999975 748.589439"
			fill=""
            fill-opacity="0.000000"
            stroke="green"
            stroke-opacity="1.000000"
            stroke-width="4.000000"
            stroke-dasharray=""
            transform="" />
	<line x1="112.99997500000003" y1="748.589439105265" x2="333" y2="748.589439105265"
			fill=""
            fill-opacity="0.000000"
            stroke="green"
            stroke-opacity="1.000000"
            stroke-width="4.000000"
            stroke-dasharray=""
            transform="" />
	<path d="M 334.414214 750.003653 L 323.000000 738.589439 M 334.414214 747.175226 L 323.000000 758.589439"
			fill=""
            fill-opacity="0.000000"
            stroke="green"
            stroke-opacity="1.000000"
            stroke-width="4.000000"
            stroke-dasharray=""
            transform="" />
	<line x1="573.999986" y1="284" x2="573.999986" y2="314.00206699999995"
			fill=""
            fill-opacity="0.000000"
            stroke="black"
            stroke-opacity="1.000000"
            stroke-width="2.000000"
            stroke-dasharray=""
            transform="" />
	<path d="M 573.292879 283.292893 L 584.999986 295.000000 M 574.707093 283.292893 L 562.999986 295.000000"
			fill=""
            fill-opacity="0.000000"
            stroke="black"
            stroke-opacity="1.000000"
            stroke-width="2.000000"
            stroke-dasharray=""
            transform="" />
	<path d="M 573.999986 314.002067 A 10.000000 10.000000 0 0 1 573.999986 314.002067"
			fill=""
            fill-opacity="0.000000"
            stroke="black"
            stroke-opacity="1.000000"
            stroke-width="2.000000"
            stroke-dasharray=""
            transform="" />
	<line x1="573.999986" y1="314.00206699999995" x2="573.999986" y2="314.00206699999995"
			fill=""
            fill-opacity="0.000000"
            stroke="black"
            stroke-opacity="1.000000"
            stroke-width="2.000000"
            stroke-dasharray=""
            transform="" />
	<path d="M 573.999986 314.002067 A 10.000000 10.000000 0 0 0 573.999986 314.002067"
			fill=""
            fill-opacity="0.000000"
            stroke="black"
            stroke-opacity="1.000000"
            stroke-width="2.000000"
            stroke-dasharray=""
            transform="" />
	<line x1="573.999986" y1="314.00206699999995" x2="573.999986" y2="426"
			fill=""
            fill-opacity="0.000000"
            stroke="black"
            stroke-opacity="1.000000"
            stroke-width="2.000000"
            stroke-dasharray=""
            transform="" />
	<path d="M 574.707093 426.707107 L 562.999986 415.000000 M 573.292879 426.707107 L 584.999986 415.000000"
			fill=""
            fill-opacity="0.000000"
            stroke="black"
            stroke-opacity="1.000000"
            stroke-width="2.000000"
            stroke-dasharray=""
            transform="" />
  <rect x="461" y="426" width="200" height="132" rx="3" ry="3"
			fill="lavender"
            fill-opacity="0.000000"
            stroke="turquoise"
            stroke-opacity="1.000000"
            stroke-width="1.000000"
            stroke-dasharray=""
            transform="" />
  <rect x="1125.333333" y="62.333332" width="853" height="125.571444" rx="20" ry="20"
			fill=""
            fill-opacity="0.000000"
            stroke="black"
            stroke-opacity="1.000000"
            stroke-width="1.000000"
            stroke-dasharray=""
            transform="" />
  <text
			x="1551.833333" 
			y="125.119054"
			writing-mode=""
			dominant-baseline="central"
			text-anchor="middle"
			font-weight=""
			font-style=""
			font-size="27px"
			fill="black"
            fill-opacity="1.000000"
            stroke="black"
            stroke-opacity="1.000000"
            stroke-width="1.000000"
            stroke-dasharray=""
            transform="" ><tspan x="1551.833333" text-anchor="middle">Start</tspan></text>
  <rect x="1174.769231" y="397.256327" width="430" height="384" rx="20" ry="20"
			fill=""
            fill-opacity="0.000000"
            stroke="black"
            stroke-opacity="1.000000"
            stroke-width="1.000000"
            stroke-dasharray=""
            transform="" />
  <text
			x="1389.769231" 
			y="589.256327"
			writing-mode=""
			dominant-baseline=""
			text-anchor="middle"
			font-weight=""
			font-style=""
			font-size="27px"
			fill="black"
            fill-opacity="1.000000"
            stroke="black"
            stroke-opacity="1.000000"
            stroke-width="1.000000"
            stroke-dasharray=""
            transform="" ><tspan x="1389.769231" text-anchor="middle">End</tspan></text>
	<line x1="1457.000205" y1="187.904776" x2="1457.000205" y2="308.005197756364"
			fill=""
            fill-opacity="0.000000"
            stroke="black"
            stroke-opacity="1.000000"
            stroke-width="1.000000"
            stroke-dasharray=""
            transform="" />
	<path d="M 1456.646652 187.551223 L 1472.000205 202.904776 M 1457.353758 187.551223 L 1442.000205 202.904776"
			fill=""
            fill-opacity="0.000000"
            stroke="black"
            stroke-opacity="1.000000"
            stroke-width="1.000000"
            stroke-dasharray=""
            transform="" />
	<path d="M 1457.000205 308.005198 A 20.000000 20.000000 0 0 1 1457.000205 308.005198"
			fill=""
            fill-opacity="0.000000"
            stroke="black"
            stroke-opacity="1.000000"
            stroke-width="1.000000"
            stroke-dasharray=""
            transform="" />
	<text xml:space="preserve"
			x="1457.000205" 
			y="221.904776" 
			text-anchor="end"
			font-weight=""
			font-style=""
			font-size=""
			fill="black"
            fill-opacity="1.000000"
            stroke="black"
            stroke-opacity="1.000000"
            stroke-width="1.000000"
            stroke-dasharray=""
            transform="">
		<tspan xml:space="preserve"> LEFT_OR_TOP </tspan>
	</text>
	<text xml:space="preserve"
			x="1457.000205" 
			y="221.904776" 
			text-anchor="start"
			font-weight=""
			font-style=""
			font-size="16"
			fill="black"
            fill-opacity="1.000000"
            stroke="black"
            stroke-opacity="1.000000"
            stroke-width="1.000000"
            stroke-dasharray=""
            transform="">
		<tspan xml:space="preserve"> RIGHT_OR_BOTTOM </tspan>
	</text>
	<line x1="1457.000205" y1="308.005197756364" x2="1457.000205" y2="308.005197756364"
			fill=""
            fill-opacity="0.000000"
            stroke="black"
            stroke-opacity="1.000000"
            stroke-width="1.000000"
            stroke-dasharray=""
            transform="" />
	<path d="M 1457.000205 308.005198 A 20.000000 20.000000 0 0 0 1457.000205 308.005198"
			fill=""
            fill-opacity="0.000000"
            stroke="black"
            stroke-opacity="1.000000"
            stroke-width="1.000000"
            stroke-dasharray=""
            transform="" />
	<line x1="1457.000205" y1="308.005197756364" x2="1457.000205" y2="397.256327"
			fill=""
            fill-opacity="0.000000"
            stroke="black"
            stroke-opacity="1.000000"
            stroke-width="1.000000"
            stroke-dasharray=""
            transform="" />
	<path d="M 1457.353758 397.609880 L 1442.000205 382.256327 M 1456.646652 397.609880 L 1472.000205 382.256327"
			fill=""
            fill-opacity="0.000000"
            stroke="black"
            stroke-opacity="1.000000"
            stroke-width="1.000000"
            stroke-dasharray=""
            transform="" />
	<text xml:space="preserve"
			x="1457.000205" 
			y="374.656327" 
			text-anchor="end"
			font-weight=""
			font-style=""
			font-size=""
			fill="black"
            fill-opacity="1.000000"
            stroke="black"
            stroke-opacity="1.000000"
            stroke-width="1.000000"
            stroke-dasharray=""
            transform="">
		<tspan xml:space="preserve"> LEFT_OR_TOP </tspan>
	</text>
	<text xml:space="preserve"
			x="1457.000205" 
			y="374.656327" 
			text-anchor="start"
			font-weight=""
			font-style=""
			font-size="16"
			fill="black"
            fill-opacity="1.000000"
            stroke="black"
            stroke-opacity="1.000000"
            stroke-width="1.000000"
            stroke-dasharray=""
            transform="">
		<tspan xml:space="preserve"> RIGHT_OR_BOTTOM </tspan>
	</text>
	<line x1="1604.769231" y1="646.004999" x2="1861.0003530000001" y2="646.004999"
			fill=""
            fill-opacity="0.000000"
            stroke="black"
            stroke-opacity="1.000000"
            stroke-width="1.000000"
            stroke-dasharray=""
            transform="" />
	<path d="M 1604.415678 646.358552 L 1619.769231 631.004999 M 1604.415678 645.651446 L 1619.769231 661.004999"
			fill=""
            fill-opacity="0.000000"
            stroke="black"
            stroke-opacity="1.000000"
            stroke-width="1.000000"
            stroke-dasharray=""
            transform="" />
	<path d="M 1861.000353 646.004999 A 40.000000 40.000000 0 0 0 1901.000353 606.004999"
			fill=""
            fill-opacity="0.000000"
            stroke="black"
            stroke-opacity="1.000000"
            stroke-width="1.000000"
            stroke-dasharray=""
            transform="" />
	<text xml:space="preserve"
			x="1604.769231" 
			y="623.404999" 
			text-anchor="start"
			font-weight=""
			font-style=""
			font-size=""
			fill="black"
            fill-opacity="1.000000"
            stroke="black"
            stroke-opacity="1.000000"
            stroke-width="1.000000"
            stroke-dasharray=""
            transform="">
		<tspan xml:space="preserve"> LEFT_OR_TOP </tspan>
	</text>
	<text xml:space="preserve"
			x="1604.769231" 
			y="680.004999" 
			text-anchor="start"
			font-weight=""
			font-style=""
			font-size="16"
			fill="black"
            fill-opacity="1.000000"
            stroke="black"
            stroke-opacity="1.000000"
            stroke-width="1.000000"
            stroke-dasharray=""
            transform="">
		<tspan xml:space="preserve"> RIGHT_OR_BOTTOM </tspan>
	</text>
	<text xml:space="preserve"
			x="1604.769231" 
			y="720.004999" 
			text-anchor="start"
			font-weight=""
			font-style=""
			font-size=""
			fill="red"
            fill-opacity="1.000000"
            stroke="red"
            stroke-opacity="1.000000"
            stroke-width="1.000000"
            stroke-dasharray=""
            transform="">
		<tspan xml:space="preserve"> AA_RIGHT_OR_BOTTOM_BELOW </tspan>
	</text>
	<text xml:space="preserve"
			x="1604.769231" 
			y="583.404999" 
			text-anchor="start"
			font-weight=""
			font-style=""
			font-size=""
			fill="blue"
            fill-opacity="1.000000"
            stroke="blue"
            stroke-opacity="1.000000"
            stroke-width="1.000000"
            stroke-dasharray=""
            transform="">
		<tspan xml:space="preserve"> LEFT_OR_TOP_ABOVE </tspan>
	</text>
	<line x1="1901.0003530000001" y1="606.004999" x2="1901.0003530000001" y2="187.904776"
			fill=""
            fill-opacity="0.000000"
            stroke="black"
            stroke-opacity="1.000000"
            stroke-width="1.000000"
            stroke-dasharray=""
            transform="" />
	<path d="M 1900.646800 187.551223 L 1916.000353 202.904776 M 1901.353906 187.551223 L 1886.000353 202.904776"
			fill=""
            fill-opacity="0.000000"
            stroke="black"
            stroke-opacity="1.000000"
            stroke-width="1.000000"
            stroke-dasharray=""
            transform="" />
	<text xml:space="preserve"
			x="1901.0003530000001" 
			y="221.904776" 
			text-anchor="end"
			font-weight=""
			font-style=""
			font-size=""
			fill="black"
            fill-opacity="1.000000"
            stroke="black"
            stroke-opacity="1.000000"
            stroke-width="1.000000"
            stroke-dasharray=""
            transform="">
		<tspan xml:space="preserve"> LEFT_OR_TOP </tspan>
	</text>
	<text xml:space="preserve"
			x="1901.0003530000001" 
			y="221.904776" 
			text-anchor="start"
			font-weight=""
			font-style=""
			font-size="16"
			fill="black"
            fill-opacity="1.000000"
            stroke="black"
            stroke-opacity="1.000000"
            stroke-width="1.000000"
            stroke-dasharray=""
            transform="">
		<tspan xml:space="preserve"> RIGHT_OR_BOTTOM </tspan>
	</text>
	<text xml:space="preserve"
			x="1901.0003530000001" 
			y="261.90477599999997" 
			text-anchor="start"
			font-weight=""
			font-style=""
			font-size=""
			fill="red"
            fill-opacity="1.000000"
            stroke="red"
            stroke-opacity="1.000000"
            stroke-width="1.000000"
            stroke-dasharray=""
            transform="">
		<tspan xml:space="preserve"> AA_RIGHT_OR_BOTTOM_BELOW </tspan>
	</text>
	<text xml:space="preserve"
			x="1901.0003530000001" 
			y="181.904776" 
			text-anchor="end"
			font-weight=""
			font-style=""
			font-size=""
			fill="blue"
            fill-opacity="1.000000"
            stroke="blue"
            stroke-opacity="1.000000"
            stroke-width="1.000000"
            stroke-dasharray=""
            transform="">
		<tspan xml:space="preserve"> LEFT_OR_TOP_ABOVE </tspan>
	</text>
	<line x1="1125.333333" y1="140.257445002864" x2="827.9997010000001" y2="140.257445002864"
			fill=""
            fill-opacity="0.000000"
            stroke="black"
            stroke-opacity="1.000000"
            stroke-width="1.000000"
            stroke-dasharray=""
            transform="" />
	<path d="M 1125.686886 140.610998 L 1110.333333 125.257445 M 1125.686886 139.903892 L 1110.333333 155.257445"
			fill=""
            fill-opacity="0.000000"
            stroke="black"
            stroke-opacity="1.000000"
            stroke-width="1.000000"
            stroke-dasharray=""
            transform="" />
	<path d="M 827.999701 140.257445 A 30.000000 30.000000 0 0 0 797.999701 170.257445"
			fill=""
            fill-opacity="0.000000"
            stroke="black"
            stroke-opacity="1.000000"
            stroke-width="1.000000"
            stroke-dasharray=""
            transform="" />
	<text xml:space="preserve"
			x="1125.333333" 
			y="117.657445002864" 
			text-anchor="end"
			font-weight=""
			font-style=""
			font-size=""
			fill="black"
            fill-opacity="1.000000"
            stroke="black"
            stroke-opacity="1.000000"
            stroke-width="1.000000"
            stroke-dasharray=""
            transform="">
		<tspan xml:space="preserve"> LEFT_OR_TOP </tspan>
	</text>
	<text xml:space="preserve"
			x="1125.333333" 
			y="174.257445002864" 
			text-anchor="end"
			font-weight=""
			font-style=""
			font-size="16"
			fill="black"
            fill-opacity="1.000000"
            stroke="black"
            stroke-opacity="1.000000"
            stroke-width="1.000000"
            stroke-dasharray=""
            transform="">
		<tspan xml:space="preserve"> RIGHT_OR_BOTTOM </tspan>
	</text>
	<line x1="797.9997010000001" y1="170.257445002864" x2="797.9997010000001" y2="524.005127"
			fill=""
            fill-opacity="0.000000"
            stroke="black"
            stroke-opacity="1.000000"
            stroke-width="1.000000"
            stroke-dasharray=""
            transform="" />
	<path d="M 797.999701 524.005127 A 30.000000 30.000000 0 0 0 827.999701 554.005127"
			fill=""
            fill-opacity="0.000000"
            stroke="black"
            stroke-opacity="1.000000"
            stroke-width="1.000000"
            stroke-dasharray=""
            transform="" />
	<line x1="827.9997010000001" y1="554.005127" x2="1174.769231" y2="554.005127"
			fill=""
            fill-opacity="0.000000"
            stroke="black"
            stroke-opacity="1.000000"
            stroke-width="1.000000"
            stroke-dasharray=""
            transform="" />
	<path d="M 1175.122784 554.358680 L 1159.769231 539.005127 M 1175.122784 553.651574 L 1159.769231 569.005127"
			fill=""
            fill-opacity="0.000000"
            stroke="black"
            stroke-opacity="1.000000"
            stroke-width="1.000000"
            stroke-dasharray=""
            transform="" />
	<text xml:space="preserve"
			x="1174.769231" 
			y="531.405127" 
			text-anchor="end"
			font-weight=""
			font-style=""
			font-size=""
			fill="black"
            fill-opacity="1.000000"
            stroke="black"
            stroke-opacity="1.000000"
            stroke-width="1.000000"
            stroke-dasharray=""
            transform="">
		<tspan xml:space="preserve"> LEFT_OR_TOP </tspan>
	</text>
	<text xml:space="preserve"
			x="1174.769231" 
			y="588.005127" 
			text-anchor="end"
			font-weight=""
			font-style=""
			font-size="16"
			fill="black"
            fill-opacity="1.000000"
            stroke="black"
            stroke-opacity="1.000000"
            stroke-width="1.000000"
            stroke-dasharray=""
            transform="">
		<tspan xml:space="preserve"> RIGHT_OR_BOTTOM </tspan>
	</text>
  <rect x="473.999969" y="47" width="237" height="237" rx="3" ry="3"
			fill="lightcyan"
            fill-opacity="0.000000"
            stroke="darkcyan"
            stroke-opacity="1.000000"
            stroke-width="2.000000"
            stroke-dasharray=""
            transform="" />
  <rect
			x="592.499969" 
			y="87"
			width="100"
			height="30"
			fill="lightgrey"
            fill-opacity="40.000000"
            stroke="bisque"
            stroke-opacity="1.000000"
            stroke-width="1.000000"
            stroke-dasharray=""
            transform="" >
</rect>
<path
			d="M532-131q-6 5-12.5 8t-14.5 3q-8 0-16-3.5t-14-9.5q-41-44-60.5-90T395-320q0-37 11-78t38-106q23-57 32-87.5t9-56.5q0-34-15-63.5T423-771q-6-6-9.5-14t-3.5-16q0-8 3-14.5t8-12.5q6-6 13.5-9t15.5-3q8 0 15 3t13 8q44 41 65.5 86t21.5 95q0 35-10.5 73.5T518-474q-25 60-34 92t-9 61q0 35 14.5 67.5T534-188q5 6 8 13t3 15q0 8-3 15.5T532-131Zm195 0q-6 5-12.5 8t-14.5 3q-8 0-16-3.5t-14-9.5q-41-44-60.5-89.5T590-319q0-37 11-79t38-106q23-57 32-87t9-56q0-34-15-64.5T618-771q-6-6-9-13.5t-3-15.5q0-8 2.5-14.5T616-827q6-6 14-9.5t16-3.5q8 0 14.5 3t12.5 8q44 41 65.5 86t21.5 95q0 35-10.5 73.5T713-473q-25 60-34 92t-9 60q0 35 15 68.5t45 65.5q5 6 7.5 13t2.5 14q0 8-3 16t-10 13Zm-390 0q-6 5-12.5 8t-14.5 3q-8 0-16-3.5t-14-9.5q-41-44-60.5-89.5T200-319q0-37 11-79t38-106q23-57 32-87t9-56q0-34-15-64.5T228-771q-7-6-10-13.5t-3-15.5q0-8 3-15t8-13q6-6 13.5-9t15.5-3q8 0 15 3t13 8q44 41 65.5 85.5T370-648q0 35-10 73.5T324-474q-25 60-34 92t-9 61q0 35 14.5 68.5T340-187q5 6 7.5 13t2.5 14q0 8-3 16t-10 13Z"
			fill="black"
            fill-opacity="0.500000"
            stroke="black"
            stroke-opacity="1.000000"
            stroke-width="1.000000"
            stroke-dasharray=""
            transform="translate(473.999969 284) scale(0.246875 0.246875)" >
</path>
</svg>
